<svg width="47" height="30" viewBox="0 0 47 30" fill="none" xmlns="http://www.w3.org/2000/svg">
<path d="M43.0829 4H29.3747V0H43.0829V4ZM46.4629 24C45.5973 26.594 42.4895 30 36.4736 30C30.4537 30 25.5775 26.542 25.5775 18.65C25.5775 10.83 30.1306 6.81 36.2817 6.81C42.3172 6.81 46.0027 10.374 46.8076 15.662C46.9603 16.674 47.021 18.038 46.9936 19.942H31.2742C31.5288 26.364 38.095 26.566 40.259 24H46.4629ZM31.4113 16H41.1343C40.9287 12.906 38.9097 11.562 36.2836 11.562C33.4127 11.562 31.8245 13.098 31.4113 16ZM12.6624 29.976H0V0.0419998H13.6161C24.3399 0.204 24.5435 10.93 18.9428 13.854C25.7205 16.374 25.9476 29.976 12.6624 29.976ZM5.87494 12H12.8935C17.805 12 18.5844 6 12.2825 6H5.87494V12ZM12.5156 18H5.87494V24.032H12.4177C18.4003 24.032 18.0341 18 12.5156 18Z" fill="white"/>
</svg>
