<svg width="38" height="38" viewBox="0 0 38 38" fill="none" xmlns="http://www.w3.org/2000/svg">
<path d="M26.9164 3.16638C29.0142 3.17265 31.0244 4.00879 32.5078 5.49221C33.9912 6.97562 34.8274 8.98576 34.8336 11.0836V26.9164C34.8274 29.0142 33.9912 31.0244 32.5078 32.5078C31.0244 33.9912 29.0142 34.8274 26.9164 34.8336H11.0836C8.98576 34.8274 6.97562 33.9912 5.49221 32.5078C4.00879 31.0244 3.17265 29.0142 3.16638 26.9164V11.0836C3.17265 8.98576 4.00879 6.97562 5.49221 5.49221C6.97562 4.00879 8.98576 3.17265 11.0836 3.16638H26.9164ZM26.9164 0H11.0836C4.9875 0 0 4.9875 0 11.0836V26.9164C0 33.0125 4.9875 38 11.0836 38H26.9164C33.0125 38 38 33.0125 38 26.9164V11.0836C38 4.9875 33.0125 0 26.9164 0Z" fill="#FEFEFE"/>
<path d="M29.2914 11.0859C28.8217 11.0859 28.3625 10.9466 27.9719 10.6857C27.5813 10.4247 27.2769 10.0538 27.0972 9.61981C26.9174 9.18584 26.8704 8.7083 26.962 8.2476C27.0537 7.78689 27.2799 7.36371 27.612 7.03156C27.9442 6.69941 28.3673 6.47321 28.828 6.38157C29.2888 6.28993 29.7663 6.33697 30.2003 6.51672C30.6342 6.69648 31.0052 7.00089 31.2661 7.39146C31.5271 7.78203 31.6664 8.24121 31.6664 8.71094C31.6671 9.02302 31.6061 9.33215 31.487 9.62061C31.3679 9.90906 31.1929 10.1711 30.9723 10.3918C30.7516 10.6125 30.4895 10.7874 30.2011 10.9065C29.9126 11.0256 29.6035 11.0866 29.2914 11.0859ZM19 12.6687C20.2527 12.6687 21.4772 13.0402 22.5188 13.7361C23.5603 14.4321 24.3721 15.4212 24.8515 16.5786C25.3309 17.7359 25.4563 19.0094 25.2119 20.238C24.9675 21.4666 24.3643 22.5951 23.4785 23.4809C22.5928 24.3666 21.4642 24.9699 20.2356 25.2142C19.007 25.4586 17.7336 25.3332 16.5762 24.8538C15.4189 24.3744 14.4297 23.5627 13.7338 22.5211C13.0378 21.4795 12.6664 20.255 12.6664 19.0023C12.6682 17.3231 13.3361 15.7132 14.5234 14.5258C15.7108 13.3384 17.3208 12.6705 19 12.6687ZM19 9.50232C17.1211 9.50232 15.2844 10.0595 13.7221 11.1034C12.1598 12.1472 10.9422 13.6309 10.2231 15.3668C9.50412 17.1027 9.31598 19.0129 9.68254 20.8557C10.0491 22.6985 10.9539 24.3912 12.2825 25.7198C13.6111 27.0484 15.3038 27.9532 17.1466 28.3198C18.9895 28.6863 20.8996 28.4982 22.6355 27.7792C24.3714 27.0602 25.8551 25.8425 26.899 24.2802C27.9428 22.718 28.5 20.8812 28.5 19.0023C28.5 16.4828 27.4991 14.0664 25.7175 12.2848C23.9359 10.5032 21.5196 9.50232 19 9.50232Z" fill="#FEFEFE"/>
</svg>
