<svg width="38" height="38" viewBox="0 0 38 38" fill="none" xmlns="http://www.w3.org/2000/svg">
<path d="M8.50589 38H0.627679V12.6293H8.50589V38ZM4.56254 9.16855C2.04335 9.16855 0 7.0819 0 4.56265C1.80313e-08 3.35256 0.480695 2.19203 1.33634 1.33637C2.19198 0.480706 3.35248 0 4.56254 0C5.77261 0 6.93311 0.480706 7.78875 1.33637C8.64439 2.19203 9.12509 3.35256 9.12509 4.56265C9.12509 7.0819 7.08089 9.16855 4.56254 9.16855ZM37.9915 38H30.1303V25.6497C30.1303 22.7064 30.0709 18.9317 26.0342 18.9317C21.9382 18.9317 21.3105 22.1296 21.3105 25.4377V38H13.4408V12.6293H20.9967V16.0901H21.107C22.1587 14.0968 24.728 11.9932 28.5611 11.9932C36.5343 11.9932 38 17.2437 38 24.0635V38H37.9915Z" fill="#FEFEFE"/>
</svg>
