<svg width="820" height="478" viewBox="0 0 820 478" fill="none" xmlns="http://www.w3.org/2000/svg">
<rect width="820" height="478" fill="white"/>
<g clip-path="url(#clip0_772_5707)">
<path d="M355.719 214.734H361.789V232.741C361.789 238.293 358.216 241.068 351.069 241.068C343.922 241.068 340.367 238.293 340.403 232.741V214.734H346.472V231.389C346.472 234.323 348.014 235.796 351.096 235.783C354.178 235.769 355.719 234.309 355.719 231.389V214.734Z" fill="black"/>
<path d="M375.429 240.176H369.359V214.734H385.663C391.665 214.734 394.671 217.438 394.68 222.845C394.689 228.253 391.683 230.93 385.663 230.875H375.429V240.176ZM375.429 225.725H385.663C386.351 225.817 387.048 225.633 387.6 225.212C388.153 224.791 388.516 224.169 388.61 223.481C388.65 223.235 388.65 222.984 388.61 222.737C388.702 222.056 388.521 221.366 388.105 220.819C387.689 220.272 387.074 219.911 386.393 219.817C386.151 219.777 385.904 219.777 385.663 219.817H375.429V225.725Z" fill="black"/>
<path d="M407.384 240.176H401.328V214.734H417.672C423.683 214.734 426.689 217.438 426.689 222.845C426.689 228.253 423.683 230.907 417.672 230.808H407.438L407.384 240.176ZM407.384 225.725H417.672C418.36 225.817 419.057 225.633 419.609 225.212C420.162 224.791 420.525 224.169 420.619 223.481C420.66 223.235 420.66 222.984 420.619 222.737C420.711 222.056 420.53 221.366 420.114 220.819C419.699 220.272 419.083 219.911 418.402 219.817C418.16 219.777 417.914 219.777 417.672 219.817H407.438L407.384 225.725Z" fill="black"/>
<path d="M456.243 240.176H433.262V214.734H454.702V219.817H439.304V225.725H451.62V230.808H439.304V235.08H456.189L456.243 240.176Z" fill="black"/>
<path d="M469.246 240.176H463.176V214.734H479.479C485.481 214.734 488.487 217.438 488.496 222.845C488.496 227.352 486.374 229.97 482.129 230.7C483.251 232.322 484.386 233.904 485.549 235.472C486.712 237.04 487.834 238.622 488.956 240.244H481.439C480.317 238.662 479.209 237.094 478.087 235.553C476.965 234.012 475.856 232.457 474.734 230.875H469.246V240.176ZM469.246 225.779H479.479C480.164 225.875 480.859 225.696 481.411 225.28C481.964 224.865 482.329 224.247 482.426 223.562C482.467 223.32 482.467 223.074 482.426 222.832C482.523 222.148 482.346 221.453 481.933 220.899C481.521 220.344 480.906 219.975 480.223 219.871C479.976 219.831 479.725 219.831 479.479 219.871H469.246V225.779Z" fill="black"/>
<path d="M505.082 240.513C503.638 240.108 502.269 239.473 501.026 238.634C499.8 237.83 498.701 236.846 497.768 235.714C496.825 234.587 496.08 233.307 495.565 231.929C494.484 229.039 494.484 225.856 495.565 222.966C496.09 221.594 496.834 220.316 497.768 219.181C498.711 218.059 499.808 217.076 501.026 216.261C502.278 215.438 503.645 214.805 505.082 214.382C506.517 213.964 508.008 213.772 509.502 213.814C510.989 213.829 512.466 214.043 513.896 214.45C515.328 214.854 516.694 215.464 517.951 216.261C519.211 217.059 520.33 218.059 521.264 219.222L519.06 221.385C518.344 222.101 517.627 222.804 516.884 223.494C516.284 222.284 515.392 221.243 514.288 220.465C513.285 219.789 512.153 219.329 510.962 219.114C509.781 218.899 508.567 218.95 507.407 219.262C506.245 219.55 505.152 220.065 504.19 220.776C503.229 221.495 502.439 222.419 501.878 223.48C501.254 224.686 500.942 226.029 500.972 227.387C500.956 228.677 501.238 229.953 501.796 231.116C502.355 232.279 503.174 233.297 504.19 234.092C505.141 234.811 506.232 235.323 507.394 235.593C508.557 235.879 509.766 235.929 510.949 235.741C512.143 235.538 513.277 235.077 514.274 234.39C515.405 233.622 516.333 232.593 516.978 231.388L519.06 233.497C519.763 234.2 520.493 234.849 521.223 235.606C520.276 236.782 519.143 237.795 517.87 238.607C515.363 240.227 512.447 241.099 509.462 241.122C507.979 241.15 506.501 240.945 505.082 240.513Z" fill="black"/>
<path d="M542.952 214.734H549.021V232.741C549.021 238.293 545.443 241.068 538.288 241.068C531.132 241.068 527.576 238.293 527.622 232.741V214.734H533.691V231.389C533.691 234.323 535.232 235.796 538.328 235.783C541.424 235.769 542.965 234.309 542.952 231.389V214.734Z" fill="black"/>
<path d="M564.162 219.817H555.727V214.734H578.708V219.817H570.273V240.176H564.203L564.162 219.817Z" fill="black"/>
<path d="M278.5 203C271.281 203 264.224 205.141 258.222 209.151C252.219 213.162 247.541 218.863 244.778 225.532C242.016 232.202 241.293 239.54 242.701 246.621C244.11 253.701 247.586 260.205 252.691 265.309C257.795 270.414 264.299 273.89 271.379 275.299C278.46 276.707 285.798 275.984 292.468 273.222C299.137 270.459 304.838 265.781 308.849 259.778C312.859 253.776 315 246.719 315 239.5C315 229.82 311.154 220.536 304.309 213.691C297.464 206.846 288.18 203 278.5 203ZM293.681 251.667C293.681 260.346 288.125 264.685 277.013 264.685V256.574C266 256.52 260.489 252.18 260.48 243.556V215.464H269.943V241.568C269.943 246.151 272.349 248.449 277.162 248.436V256.547C281.866 256.493 284.218 254.208 284.218 249.693V215.464H293.681V251.667Z" fill="black"/>
<path d="M277.082 256.492H276.906V256.641H277.082V256.492Z" fill="black"/>
<path d="M345.053 265.903H341.16V251.668H345.053C348.906 251.668 352.029 253.763 352.029 258.819C352.029 263.875 348.798 265.903 345.053 265.903ZM345.053 253.736H343.323V263.835H345.081C348.474 263.835 349.866 261.766 349.866 258.765C349.866 255.764 348.514 253.682 345.053 253.682V253.736Z" fill="black"/>
<path d="M388.016 265.903V251.668H397.235V253.75H390.165V257.292H394.221V259.374H390.165V263.835H397.546V265.916L388.016 265.903Z" fill="black"/>
<path d="M437.548 266.129C436.585 266.137 435.631 265.936 434.754 265.539C433.876 265.142 433.095 264.559 432.465 263.831L433.992 262.344C434.468 262.859 435.042 263.274 435.681 263.565C436.319 263.855 437.009 264.014 437.71 264.034C439.724 264.034 440.684 263.344 440.684 261.952C440.684 260.843 439.846 260.289 437.453 259.573C434.425 258.68 432.979 257.923 432.979 255.368C432.979 252.813 435.06 251.313 437.697 251.313C438.567 251.303 439.431 251.471 440.235 251.805C441.039 252.14 441.767 252.635 442.374 253.26L440.86 254.787C440.436 254.335 439.92 253.98 439.345 253.746C438.771 253.513 438.153 253.407 437.534 253.435C435.858 253.435 435.142 254.246 435.142 255.206C435.142 256.166 435.79 256.707 438.264 257.437C441.09 258.302 442.847 259.194 442.847 261.749C442.847 264.304 441.211 266.129 437.548 266.129Z" fill="black"/>
<path d="M479.129 265.903V251.668H481.278V265.903H479.129Z" fill="black"/>
<path d="M523.457 266.13C519.753 266.13 517.414 263.088 517.414 258.749C517.414 254.409 519.753 251.368 523.457 251.368C524.443 251.3 525.427 251.519 526.291 251.999C527.154 252.478 527.861 253.198 528.324 254.071L526.444 255.234C526.166 254.691 525.735 254.242 525.204 253.942C524.673 253.641 524.065 253.503 523.457 253.544C520.969 253.544 519.591 255.572 519.591 258.776C519.591 261.98 520.942 264.007 523.457 264.007C523.849 264.046 524.245 264.007 524.621 263.892C524.998 263.777 525.348 263.588 525.651 263.337C525.954 263.085 526.204 262.776 526.387 262.427C526.569 262.078 526.681 261.696 526.715 261.304C526.728 261.124 526.728 260.943 526.715 260.763H524.376V258.641H528.891V260.303C528.891 263.98 526.647 266.13 523.457 266.13Z" fill="black"/>
<path d="M573.757 265.903L568.052 256.927C567.701 256.399 567.214 255.575 566.984 255.169V265.903H564.902V251.668H567.092L572.5 260.387C572.878 260.982 573.487 262.05 573.689 262.415V251.668H575.839V265.903H573.757Z" fill="black"/>
</g>
<defs>
<clipPath id="clip0_772_5707">
<rect width="336.706" height="73" fill="white" transform="translate(242 203)"/>
</clipPath>
</defs>
</svg>
