<svg width="536" height="888" viewBox="0 0 536 888" fill="none" xmlns="http://www.w3.org/2000/svg">
<path fill-rule="evenodd" clip-rule="evenodd" d="M478.475 1184.49C484.229 1176.1 489.084 1167.12 492.957 1157.71C495.061 1156.44 497.41 1151.17 499.434 1146.04C501.459 1140.92 503.493 1136.07 505.887 1135.86C507.571 1131.63 504.458 1133.54 506.381 1128.86C508.098 1125.6 509.803 1123.25 511.496 1119.63C511.622 1115.68 513.068 1111.89 515.602 1108.86C515.196 1110.33 515.983 1110.05 515.727 1111.27C512.733 1117.52 510.59 1124.15 509.355 1130.97C512.082 1123.08 516.39 1113.25 517.27 1105.74C516.867 1107.01 516.475 1108.9 515.999 1108.96C516.972 1105.71 516.045 1105.34 517.072 1102.11C518.086 1101.62 517.412 1105.54 518.41 1101.15C518.187 1099.57 518.2 1097.98 518.45 1096.41C521.553 1088.2 523.592 1079.62 524.517 1070.89C529.529 1061.13 527.91 1038.96 533.213 1037.42C532.646 1028.28 533.381 1019.1 535.396 1010.17C535.365 1008.02 534.095 1009.4 534.219 1006.82C535.125 1001.47 535.19 996.017 534.41 990.652L533.65 981.771C533.318 978.943 533.136 976.1 533.104 973.254C534.716 973.795 533.655 984.407 535.308 980.865C532.478 965.218 534.794 951.822 532.625 939.66C533.57 939.926 533.712 944.396 534.797 943.807C534.34 938.632 533.593 933.487 532.559 928.396C533.057 928.039 533.032 926.69 533.914 927C532.206 919.045 531.141 910.966 530.73 902.841C529.57 901.551 529.89 905.941 529.212 903.221L527.896 896.718C528.766 897.932 529.589 897.766 529.152 895.251C526.193 886.39 524.435 875.066 520.614 867.105C522.947 869.769 520.137 864.336 520.038 863.936C519.939 863.535 520.821 863.845 520.794 863.676C518.445 853.31 515.182 843.172 511.045 833.381C507.635 825.78 504.874 817.904 502.791 809.838C502.626 811.842 498.734 806.477 498.544 802.466C499.227 801.316 500.034 804.084 500.768 803.794C490.8 780.16 479.729 754.724 466.263 728.837C466.709 729.46 467.174 730.634 466.863 730.857C460.99 718.523 459.252 712.746 452.868 703.181C448.541 693.792 438.467 677.634 435.894 672.926C436.18 673.852 438.183 678.355 436.483 676.18C433.137 665.334 427.945 657.696 419.93 644.87C420.861 642.883 415.137 633.647 413.514 634.668C414.279 636.595 415.633 638.231 417.382 639.343C417.599 640.696 420.182 643.841 418.151 643.505C415.463 639.163 406.593 625.866 412.173 631.812C402.583 619.549 402.172 614.046 393.626 603.108C395.287 598.854 382.276 585.037 384.523 584.887C381.178 581.928 378.755 578.068 377.544 573.769C383.388 580.28 386.301 585.593 390.132 589.493C388.191 586.784 386.517 584.448 386.71 583.272C383.248 580.48 380.61 576.799 379.078 572.623C377.789 573.782 376.526 569.456 376.154 568.544C374.413 568.284 377.771 571.391 376.061 571.109C371.491 565.668 367.675 559.636 364.716 553.175C365.443 554.358 366.465 555.331 367.681 555.999C364.049 551.72 361.763 545.441 359.293 545.938C360.52 547.651 363.661 550.915 363.213 551.802C359.259 547.615 355.99 542.832 353.526 537.629C354.307 538.718 357.788 543.576 356.242 540.63C354.538 538.121 352.502 535.855 350.189 533.893C346.208 524.067 341.23 518.632 335.114 509.771C333.195 509.591 329.678 504.618 326.666 501.073C327.102 500.761 327.038 500.146 326.921 499.523C327.507 498.632 329.558 502.347 330.018 500.886C325.712 496.142 321.968 490.918 318.859 485.317C316.746 483.815 308.285 475.032 309.139 472.346C313.305 476.298 316.979 480.74 320.079 485.573C321.78 485.58 332.554 502.321 333.323 499.648C333.345 501.115 333.942 502.515 334.986 503.546C336.372 504.297 338.771 506.396 341.182 507.59C338.732 508.969 346.033 511.466 344.702 513.881C346.381 516.684 346.725 514.93 347.96 516.259C348.852 518.524 349.871 520.736 351.013 522.885C359.277 531.625 366.758 541.073 373.37 551.121C380.169 561.33 386.728 571.665 393.699 580.668C390.841 576.826 388.497 572.627 386.726 568.179C387.753 569.611 388.769 572.936 390.252 573.098C389.128 571.382 388.159 569.568 387.357 567.679C391.078 571.753 391.54 575.946 393.198 577.209C389.992 572.342 394.537 576.579 394.443 576.317C393.842 574.296 391.217 572.407 390.685 568.97C390.094 569.394 390.639 570.417 390.034 570.757C388.806 569.044 389.723 568.482 388.611 566.733C382.334 560.981 376.871 554.398 372.374 547.168C367.276 539.633 361.673 532.452 355.604 525.675C356.642 523.706 353.655 521.51 353.238 522.375C351.856 520.222 351.017 517.766 350.794 515.218C346.335 513.465 340.779 502.034 335.81 498.714C333.701 492.355 322.754 482.996 318.684 477.383C319.152 478.036 319.158 478.504 318.717 478.678C316.667 476.867 315.005 474.659 313.83 472.188C316.103 473.388 314.626 474.022 316.799 476.33C314.078 468.853 304.996 461.505 298.921 452.897C297.237 451.738 295.641 450.456 294.146 449.061C292.253 445.433 289.759 442.153 286.769 439.36C285.447 439.553 283.732 438.803 280.876 435.146C282.44 440.812 289.246 447.482 293.765 452.209C290.369 450.495 293.806 454.961 290.449 452.512C290.268 448.777 278.326 437.634 275.938 434.302C277.076 435.89 278.74 437.62 277.81 438.098C274.955 435.714 272.455 432.935 270.387 429.844C273.551 433.798 274.081 431.909 275.093 435.096C274.554 432.251 273.383 429.562 271.668 427.228C270.307 427.497 273.699 430.062 271.616 430.047C271.036 429.237 270.573 429.38 269.98 428.816C269.856 427.066 262.921 420.347 265.977 421.457C260.63 416.428 253.492 408.111 252.995 404.46C244.214 397.089 236.013 389.053 228.465 380.422C228.745 379.892 229.648 379.575 228.827 378.56C227.723 378.597 225.694 376.752 224.237 376.1C224.929 374.897 222.27 374.21 222.594 373.413C223.677 374.333 223.992 373.589 224.834 373.975C223.535 372.874 222.415 371.578 221.515 370.132C220.144 370.455 223.568 372.997 221.623 372.977C220.346 371.856 218.967 370.856 217.504 369.991C215.716 366.182 209.617 363.718 205.55 357.584C206.15 357.436 207.086 358.085 207.321 357.163C204.609 354.629 203.623 355.948 200.984 353.645C201.482 353.288 202.632 354.302 203.224 354.207C197.772 352.647 191.257 342.045 188.929 339.849C189.576 340.752 190.402 341.904 189.154 341.149C177.651 329.503 167.124 320.268 155.762 310.265C155.97 309.833 157.245 310.757 156.273 309.663C150.896 305.316 121.91 285.508 129.746 286.255C129.299 285.632 128.256 284.966 128.563 284.605C129.49 285.307 130.699 286.468 131.094 286.231C127.826 283.311 124.297 280.697 120.552 278.422C120.247 277.307 119.785 276.242 119.179 275.258C111.744 272.574 110.467 265.995 103.911 261.974C104.27 260.963 107.17 264.352 107.144 262.673C97.3384 258.389 85.0809 245.493 72.9972 237.374C73.3646 236.309 77.2601 241.153 76.8864 238.923C72.4028 236.15 66.6554 231.22 60.2673 226.513C53.8792 221.806 47.4506 216.845 41.759 213.242C44.9123 214.092 38.9983 210.507 39.3792 209.527C48.0437 212.744 54.3171 220.314 65.1403 225.754C65.0274 224.939 67.2751 224.79 65.4476 223.554C60.7309 224.531 51.859 215.241 44.3371 211.252C44.3223 210.509 41.947 209.101 43.5934 208.769C38.6272 206.58 33.9628 203.76 29.7152 200.381C24.5087 196.665 19.1941 192.273 14.4901 188.339C11.0797 188.049 6.48824 182.432 1.60078 180.278C3.72123 181.068 4.11852 179.322 6.94432 181.162C7.34793 182.711 3.48928 180.81 6.93462 183.054C9.58908 181.435 19.3599 190.599 22.2413 191.267C20.1684 189.689 23.7687 191.492 23.1114 189.984C18.8881 188.297 16.3358 185.13 12.4696 183.942C11.2544 181.655 4.93547 175.862 7.47275 180.454C5.83162 176.586 -1.85332 173.422 -3.85026 169.715C5.07884 176.325 9.38944 177.147 16.2226 181.818C13.3905 178.821 10.1465 176.242 6.58814 174.159C6.85877 173.682 7.36607 173.601 8.08304 173.747C-3.8416 164.996 -12.4334 160.171 -20.4356 151.767C-20.8401 152.057 -20.8565 152.822 -21.9082 152.209C-28.3555 146.563 -35.421 141.666 -42.9697 137.61C-41.9355 138.33 -40.9771 139.01 -41.6752 139.416C-45.5081 137.026 -50.2494 134.485 -49.8562 132.931C-51.9462 131.789 -51.5237 133.89 -54.0823 132.095C-56.6409 130.299 -56.8821 127.597 -59.7004 125.045C-57.4687 128.159 -72.9094 119.759 -67.5184 119.854C-73.0807 116.3 -76.7324 115.476 -79.7006 111.335C-81.8835 111.101 -84.0324 110.617 -86.1048 109.892C-87.2552 113.544 -89.4155 112.83 -90.3094 115.592C-84.9904 117.624 -81.2879 119.307 -80.7702 122.329C-76.9969 123.354 -73.5667 125.371 -70.8366 128.172C-63.6222 129.694 -56.9119 137.611 -47.3306 143.092C-48.7837 144.417 -44.6732 145.289 -44.0946 147.608C-47.3032 145.76 -50.1771 144.378 -53.1625 142.842C-51.3335 142.568 -52.5732 141.43 -53.7472 139.726C-56.5387 139.145 -59.0351 137.595 -60.7935 135.349C-62.626 136.144 -57.3693 138.221 -57.1489 139.383C-60.8156 137.816 -65.0353 135.608 -68.5011 134.322C-69.0898 131.397 -75.7256 127.528 -80.4163 125.846C-81.7331 124.009 -81.7776 123.947 -79.4757 124.135C-88.35 120.67 -96.6109 115.8 -103.942 109.714C-107.768 110.948 -113.592 103.48 -117.075 102.63C-116.091 103.254 -115.297 104.135 -114.777 105.178C-117.558 103.401 -117.815 104.291 -120.605 102.567C-119.735 101.284 -123.549 99.4456 -125.506 97.8319C-126.721 98.0427 -123.195 100.465 -126.149 99.2353C-131.574 95.6487 -137.48 92.8515 -143.691 90.9274C-144.032 89.3339 -142.778 88.7177 -148.633 85.938C-148.698 86.2733 -148.889 86.5709 -149.167 86.7699C-149.444 86.9689 -149.788 87.0542 -150.126 87.0085C-147.902 88.6664 -145.611 87.9199 -145.252 89.4066C-151.19 87.2993 -154.501 83.0737 -160.394 83.1971C-161.714 82.2104 -164.12 81.1539 -162.875 80.2618C-161.012 81.2834 -162.667 81.998 -159.344 83.1513C-159.878 80.8946 -154.648 83.1318 -151.613 84.5393C-158.021 81.4487 -160.319 75.7437 -164.012 77.1644C-173.775 71.9543 -179.945 67.4207 -190.536 61.9089C-190.07 61.5743 -188.6 61.9821 -188.048 61.6341C-193.356 58.6978 -197.613 60.0525 -197.422 57.5589C-192.962 59.6489 -188.272 61.2075 -183.449 62.2025C-184.935 61.7165 -186.293 60.9009 -187.42 59.8167C-183.088 62.5093 -185.895 58.7239 -177.679 62.8273C-178.025 61.0958 -174.251 63.0098 -173.629 61.9048C-176.393 60.4711 -179.04 58.822 -181.545 56.9728C-175.129 58.2492 -169.114 61.0512 -164.008 65.1425C-165.607 64.686 -169.244 62.4379 -169.362 63.3241C-163.526 65.5517 -173.516 63.0489 -167.68 65.2765C-163.883 65.5247 -160.141 66.3192 -156.569 67.6353C-159.239 68.182 -151.568 68.7642 -150.922 71.5061C-149.047 71.9533 -148.38 71.24 -146.242 71.923C-139.367 77.8358 -124.289 84.9404 -116.757 89.5345C-117.997 88.3963 -120.978 86.9975 -119.986 86.1458C-119.024 86.6343 -118.69 86.4425 -117.893 86.7665C-115.661 89.8803 -108.327 91.5049 -108.242 93.9893C-105.531 95.0304 -103.021 96.532 -100.821 98.4277C-99.5888 98.11 -100.505 96.5037 -95.2993 99.5603C-95.9528 100.029 -98.1718 98.8384 -98.8118 99.3914C-91.5166 103.59 -77.5624 109.849 -74.0775 114.186C-59.175 115.854 -45.4152 134.461 -34.051 136.45C-34.2905 136.904 -32.6997 137.744 -32.7566 138.256C-34.8431 136.593 -35.903 136.363 -35.914 137.597C-32.3719 139.724 -29.0363 142.178 -25.9507 144.926C-26.085 142.241 -32.8993 138.123 -34.4452 135.177C-31.0551 136.83 -27.8226 138.789 -24.7875 141.028C-25.3027 139.324 -33.0003 134.236 -35.4426 132.734C-35.8006 132.945 -36.2106 133.051 -36.6261 133.041C-37.0416 133.031 -37.446 132.904 -37.7931 132.675C-38.97 131.821 -39.4893 130.308 -40.7195 129.446C-46.3407 125.415 -56.0385 121.808 -58.076 117.847C-55.0182 119.945 -53.3036 120.366 -52.1333 120.093C-67.5517 111.724 -76.4051 105.155 -94.3146 95.4138C-94.0345 95.2131 -93.3573 95.4349 -93.0238 95.243C-99.5948 92.6468 -105.739 87.6234 -113.653 85.5188C-113.155 85.1619 -111.743 85.7522 -111.2 85.4577C-115.361 83.7266 -119.005 82.5203 -122.573 81.3539C-120.133 81.5378 -125.272 78.5746 -125.519 77.2436C-125.682 78.0676 -126.733 78.1134 -129.019 76.8296C-131.305 75.5458 -127.359 76.5825 -129.529 75.2629C-134.627 73.0234 -139.853 71.087 -145.179 69.4638C-144.957 68.7868 -139.545 70.7522 -142.402 68.6053C-147.727 67.1525 -152.817 64.943 -157.515 62.0442C-163.241 58.9838 -168.963 55.7321 -172.01 54.24C-169.06 55.9904 -175.706 54.0132 -176.452 52.7096C-178.151 53.0324 -172.698 55.581 -175.909 54.5834C-176.786 52.572 -184.272 50.8675 -185.151 49.7065C-186.513 47.8071 -181.423 50.8995 -181.554 49.8622C-186.216 46.9649 -191.076 44.4 -196.099 42.187C-188.964 44.1409 -182.014 46.7139 -175.326 49.8764C-167.773 53.4826 -159.917 56.4165 -151.85 58.6441C-152.382 57.3758 -156.47 56.8647 -158.265 56.2659C-158.038 53.5585 -161.843 54.494 -164.197 52.4578C-160.35 50.5961 -152.929 57.5323 -148.226 58.6393C-149.47 58.022 -150.637 57.4447 -149.983 56.9764C-148.968 57.4737 -148.656 57.2508 -147.774 57.5614C-141.291 60.692 -130.711 67.437 -129.222 65.899C-124.321 68.4661 -121.592 72.7327 -117.018 74.1204C-121.147 71.848 -124.749 68.7265 -127.586 64.9618C-127.15 64.6496 -120.203 68.2962 -123.207 66.2074C-129.308 64.2513 -135.25 61.8281 -140.979 58.9594C-140.354 59.8313 -135.886 61.2013 -137.327 61.9512C-140.335 60.3833 -145.515 58.6759 -145.282 57.4244C-142.035 58.2083 -146.061 54.8253 -146.777 55.3382C-144.099 56.9065 -148.146 56.3196 -149.46 55.8003C-149.439 55.1725 -151.827 54.3384 -153.458 53.5747C-153.107 52.9465 -153.224 52.3234 -153.907 51.6341C-156.392 50.5877 -158.967 49.767 -161.599 49.1819C-174.306 41.1794 -195.635 37.7074 -208.877 31.7849C-208.2 32.0067 -207.545 32.1973 -207.675 31.819C-210.518 32.584 -217.148 29.182 -217.173 30.3308C-218.389 29.5532 -224.368 26.8626 -225.062 27.4068C-224.482 28.2164 -219.659 29.0962 -219.555 29.9643C-219.959 30.2542 -220.983 30.1398 -222.03 29.9942C-224.753 28.0342 -225.412 28.3646 -228.863 27.8214L-232.081 25.6972C-239.495 24.2242 -242.582 23.1373 -249.766 21.5927C-249.731 21.0495 -248.957 21.0129 -248.428 20.6337C-251.326 20.4258 -254.146 19.6037 -256.703 18.2222C-253.796 18.5825 -250.859 18.6267 -247.942 18.3535C-253.286 17.4699 -261.672 15.2321 -263.829 16.4949C-261.753 17.2224 -258.683 16.5774 -258.017 18.0325C-261.304 17.5465 -264.623 17.3098 -267.945 17.3241C-267.648 16.687 -268.838 16.0785 -271.429 15.8147C-268.563 15.4102 -272.458 13.394 -274.65 12.3727C-275.68 13.6297 -272.233 14.3643 -272.605 15.6204C-278.305 14.2386 -273.953 15.9738 -276.366 15.6297C-282.587 14.5736 -283.071 12.8466 -288.317 11.7046C-286.761 10.5895 -281.729 11.6962 -279.371 11.0431C-286.238 9.41346 -287.13 10.9951 -293.132 10.1124C-292.867 9.16813 -290.632 9.26329 -294.315 8.46216C-299.765 8.79282 -305.234 8.54166 -310.632 7.71299C-317.092 7.11137 -323.784 6.25185 -328.877 5.84882C-327.201 7.00429 -324.934 5.56763 -323.689 6.84388C-324.076 7.35641 -326.565 6.97225 -327.62 7.20959C-328.356 6.18202 -332.527 6.01393 -331.4 4.49862C-338.752 5.47879 -346.608 3.52089 -356.116 3.92503C-357.336 3.33888 -359.384 0.941537 -362.698 2.2326C-361.091 2.30621 -359.6 2.41566 -360.066 3.07968C-365.558 3.43409 -369.436 3.14965 -378.321 3.43721C-379.359 0.740353 -390.179 1.2843 -395.764 0.196227C-398.607 0.961285 -394.004 1.00881 -396.954 1.42671C-410.363 0.800622 -423.8 1.36188 -437.108 3.1039C-428.534 1.20049 -445.574 3.84502 -440.102 1.95008C-446.515 4.15816 -453.126 5.73987 -459.844 6.67303C-457.754 5.97574 -457.215 8.04104 -459.432 8.16858C-462.295 8.05207 -460.191 6.78037 -464.965 8.59871C-464.549 7.07542 -466.032 6.58314 -469.655 7.2468C-471.469 7.93483 -469.456 8.70688 -471.899 9.37347C-476.26 9.85998 -477.19 10.3376 -480.167 10.5864C-478.794 10.1836 -477.541 9.4478 -476.521 8.44435C-480.894 9.83474 -478.93 8.2383 -478.205 7.6719C-481.913 8.36308 -485.658 8.84356 -489.42 9.11116C-488.785 10.918 -485.166 10.7753 -488.028 13.1566C-483.761 12.0781 -483.789 13.7479 -481.892 14.2263C-501.446 19.8039 -527.535 27.5672 -545.499 32.9958C-543.558 30.7091 -544.135 29.7081 -548.509 30.4395C-550.752 35.3935 -558.975 39.496 -568.609 43.6671C-578.243 47.8382 -589.228 53.2132 -596.258 59.901C-596.657 62.8268 -593.785 61.0509 -592.197 62.7408C-597.835 66.0932 -602.564 70.7775 -605.97 76.3834C-612.53 82.2158 -615.619 84.4772 -622.76 91.0093C-623.215 90.7694 -623.74 90.6275 -625.585 92.3263C-628.295 95.1171 -622.041 90.3049 -623.082 92.7952C-630.521 99.6349 -629.528 104.108 -637.057 110.165C-633.391 109.563 -634.587 112.494 -634.927 114.058C-635.217 113.653 -638.256 116.444 -638.064 117.107C-636.299 115.56 -637.774 117.512 -639.777 119.514C-638.064 116.778 -647.031 123.063 -646.635 125.324C-642.524 121.859 -635.716 115.519 -636.999 119.973C-635.244 117.518 -632.784 115.656 -629.944 114.634C-630.83 116.384 -631.815 118.082 -632.895 119.719C-630.998 118.917 -629.145 118.014 -627.344 117.013C-631.199 122.085 -641.368 134.841 -648.104 138.915C-651.309 143.71 -652.587 150.471 -657.768 153.1C-656.154 150.626 -654.914 147.927 -654.089 145.09C-657.753 149.507 -659.787 156.856 -663.971 159.101C-657.348 144.531 -647.951 131.392 -636.303 120.418C-645.265 126.841 -657.325 143.072 -663.96 155.699C-669.887 162.612 -674.667 170.43 -678.12 178.857C-679.994 181.567 -681.173 181.564 -683.055 184.327C-685.775 189.01 -688.809 197.264 -691.694 203.951C-694.579 210.638 -696.906 215.935 -698.894 214.673C-701.463 219.107 -698.001 215.919 -699.469 218.997C-700.809 221.136 -702.02 223.324 -702.926 222.323C-701.025 208.282 -694.393 189.342 -689.195 174.775C-692.109 177.807 -695.527 182.896 -697.474 182.217C-703.593 193.748 -707.685 206.246 -709.569 219.166C-711.443 231.917 -714.099 244.541 -717.522 256.965C-712.762 253.223 -714.553 266.431 -709.508 260.129C-710.058 261.903 -710.405 263.733 -710.544 265.585C-707.131 264.694 -704.428 262.945 -703.943 269.668C-703.302 269.774 -702.793 266.015 -702.037 265.756C-703.181 270.205 -701.437 269.616 -701.086 271.485C-700.246 270.883 -699.76 266.434 -699.008 266.367C-689.24 262.712 -682.736 255.882 -670.344 248.132C-665.202 239.403 -660.293 236.592 -654.641 228.77C-654.39 232.078 -649.133 224.823 -648.957 228.42C-647.96 225.867 -646.894 224.397 -646.182 224.405C-647.482 226.797 -648 228.441 -647.553 229.064C-645.4 223.656 -644.92 227.743 -644.765 227.631C-640.459 225.818 -634.068 218.173 -629.733 217.847C-634.234 229.18 -643.854 238.102 -645.477 248.456C-647.919 251.95 -650.525 258.107 -652.736 258.372C-651.688 254.84 -650.626 251.722 -651.873 251.296C-654.098 254.986 -656.069 258.824 -657.772 262.782C-659.97 267.52 -661.736 272.445 -663.05 277.5C-667.054 278.485 -669.406 293.934 -671.579 302.797C-672.358 302.696 -671.608 299.471 -672.773 300.211C-674.449 313.055 -676.211 329.26 -677.517 342.685C-679.693 345.235 -680.697 353.496 -680.833 361.323C-680.969 369.151 -681.089 376.542 -683.473 377.356C-682.786 382.518 -682.725 387.745 -683.292 392.921C-685.502 391.678 -687.332 387.285 -689.945 389.159C-691.367 392.959 -689.245 403.74 -689.279 409.279C-687.685 409.268 -684.778 416.611 -684.368 421.454C-685.335 420.828 -686.4 417.962 -687.328 416.93C-688.007 422.554 -690.256 422.045 -691.276 426.735C-689.879 430.919 -687.338 437.158 -688.649 438.615C-689.721 436.462 -689.385 432.921 -690.78 432.224C-689.543 436.381 -690.918 436.566 -689.584 440.464C-687.173 439.49 -687.661 445.448 -686.863 447.941C-684.632 451.055 -685.348 446.572 -683.059 449.174C-676.571 464.273 -677.799 478.727 -668.858 486.93C-670.039 484.025 -671.428 481.208 -673.014 478.503C-674.185 469.114 -676.829 457.67 -678.89 445.856C-678.258 446.015 -677.588 447.279 -677.011 446.441C-678.799 442.302 -680.428 440.359 -682.119 435.962C-682.001 432.824 -682.624 429.702 -683.939 426.85C-680.703 431.365 -683.547 422.468 -682.168 422.093C-680.38 425.902 -680.39 425.296 -679.178 423.767C-678.425 426.197 -677.724 424.941 -676.916 428.368C-675.65 434.012 -673.854 439.936 -671.998 446.336C-669.769 453.054 -667.12 459.625 -664.068 466.011C-664.298 459.907 -668.923 448.327 -670.48 439.451C-666.642 439.811 -667.39 435.021 -667.427 427.412C-668.259 423.295 -668.888 426.951 -669.63 422.958C-668.428 419.711 -667.535 416.357 -666.965 412.941C-665.957 409.485 -664.622 406.878 -662.017 407.556C-658.192 421.83 -653.989 420.137 -649.186 434.134C-647.521 433.695 -645.622 437.66 -643.823 438.067C-643.138 437.577 -643.823 435.57 -643.719 434.269C-642.08 435.423 -640.724 436.933 -639.753 438.686C-636.693 439.274 -636.819 436.206 -637.44 432.974C-638.061 429.743 -638.531 425.932 -636.752 425.128C-632.693 433.814 -627.157 446.862 -622.166 452.051C-623.798 448.131 -622.223 445.399 -619.725 448.228C-621.254 442.348 -618.974 440.337 -620.353 434.208C-626.303 425.511 -630.065 427.689 -636.056 416.57C-634.199 412.128 -635.887 402.544 -637.393 392.688L-639.508 378.367C-639.935 373.96 -640.267 370.145 -640.276 367.7C-640.283 369.072 -640.486 369.971 -641.153 370.025C-641.862 366.483 -641.969 362.846 -641.468 359.269C-642.899 360.295 -642.528 354.043 -643.518 353.056C-643.751 354.637 -643.837 356.489 -644.838 356.406C-645.445 339.59 -647.711 330.184 -646.413 313.134C-646.845 312.925 -647.525 313.225 -647.305 311.889C-643.752 288.98 -641.792 273.577 -635.034 253.038C-635.302 252.664 -636.156 252.852 -635.731 251.605C-633.607 247.537 -631.088 242.244 -629.923 239.665C-630.322 240.422 -630.726 240.712 -631.012 240.445C-627.338 232.326 -623.231 224.411 -618.709 216.733C-614.404 209.595 -609.82 204.753 -606.566 204.825C-607.872 205.762 -608.356 206.862 -607.984 207.774C-605.834 205.385 -601.577 201.532 -602.051 205.077C-599.216 200.358 -595.181 198.692 -595.688 201.601C-595.029 201.6 -594.176 200.753 -593.765 201.589C-591.504 199.026 -592.214 200.006 -591.635 197.989C-591.345 198.394 -590.633 198.072 -590.046 197.84C-591.054 199.128 -592.253 200.741 -591.273 200.793C-587.265 194.951 -589.003 200.675 -586.518 199.082C-584.143 195.824 -586.858 195.649 -582.838 191.401C-583.679 193.842 -581.412 192.076 -580.676 193.104C-581.205 193.483 -584.036 195.512 -583.163 196.206C-581.457 194.182 -580.955 195.802 -579.697 194.995C-578.791 193.978 -578.016 192.852 -577.389 191.643C-578.815 195.305 -573.88 187.667 -573.843 190.61C-578.712 194.898 -582.751 200.045 -585.757 205.795C-588.467 207.172 -590.81 209.174 -592.592 211.637C-594.272 214.205 -596.532 216.342 -599.191 217.874C-598.705 216.935 -598.364 215.927 -598.177 214.885C-599.647 216.646 -600.752 216.354 -602.099 217.366C-607.475 227.347 -613.83 225.774 -619.903 236.82C-618.134 237.908 -620.359 242.756 -622.835 247.122C-620.973 247.814 -622.912 250.76 -624.606 254.378C-620.49 253.549 -623.919 264.208 -619.771 261.518C-620.731 262.677 -621.599 264.948 -620.836 265.486C-620.027 264.906 -619.181 260.764 -618.288 262.01C-617.798 262.365 -618.8 264.451 -619.322 265.956C-615.239 266.659 -611.534 255.661 -607.207 253.22C-611.127 268.19 -618.787 273.538 -621.077 286.444L-622.586 286.112C-624.306 289.809 -624.569 294.02 -623.321 297.903C-622.134 301.239 -621.937 304.846 -622.753 308.29C-621.882 311.281 -621.265 314.339 -620.91 317.433C-620.357 321.262 -620.03 325.119 -619.931 328.986C-619.385 328.171 -618.958 335.076 -617.831 335.729C-618.014 351.509 -610.561 335.751 -608.264 338.299C-606.662 335.407 -605.454 331.572 -603.32 330.278C-603.367 333.564 -602.701 332.851 -602.183 331.207L-602.297 334.729C-599.849 334.53 -599.816 337.665 -598.247 333.807C-599.226 325.081 -596.445 317.526 -592.533 314.44C-592.722 315.754 -591.646 315.218 -592.137 317.031C-590.479 317.964 -590.617 312.973 -589.219 313.149C-590.535 318.805 -593.713 319.103 -594.9 324.479C-593.842 323.721 -594.007 325.725 -593.028 325.447C-592.796 323.866 -593.295 323.564 -593.155 322.05C-592.502 323.75 -591.796 320.463 -590.656 320.542C-590.236 316.989 -589.589 317.562 -588.55 314.083C-589.169 313.679 -589.2 309.035 -588.004 308.272C-589.108 313.305 -586.604 307.268 -586.935 310.947C-584.896 304.065 -583.725 302.282 -582.624 298.43C-582.828 301.168 -582.329 303.309 -580.655 303.806C-580.516 301.633 -579.607 302.442 -579.038 301.657C-577.652 297.573 -575.64 293.73 -573.073 290.265C-571.844 288.557 -570.71 286.784 -569.673 284.953C-568.283 282.781 -567.064 280.505 -566.027 278.145C-565.782 280.608 -566.219 283.09 -567.291 285.319C-568.451 288.67 -569.416 292.084 -570.183 295.546C-569.334 297.059 -569.152 299.285 -567.304 299.563C-565.614 291.471 -559.461 282.771 -558.027 274.06C-553.987 270.364 -551.936 258.242 -546.416 251.222C-544.419 248.423 -539.811 241.774 -540.711 238.743C-533.73 229.067 -525.818 220.097 -517.089 211.962C-515.714 212.107 -517.783 214.675 -515.441 212.619C-514.009 210.131 -512.093 207.955 -509.804 206.222C-507.419 204.639 -505.218 202.793 -503.244 200.72C-513.984 207.488 -523.848 215.555 -532.614 224.739C-533.122 224.49 -533.935 225.261 -534.514 225.111C-531.55 222.021 -528.966 218.587 -526.819 214.882C-524.889 211.661 -523.593 209.459 -523.185 211.146C-522.92 210.202 -519.245 209.218 -517.179 207.171C-517.574 205.24 -515.983 203.911 -513.818 202.594C-511.342 201.507 -508.975 200.189 -506.747 198.658C-507.568 197.973 -504.427 196.571 -505.733 195.999C-507.038 195.426 -508.901 196.902 -509.739 195.995C-508.49 193.518 -506.507 191.488 -504.061 190.181C-501.509 188.682 -498.485 187.316 -495.328 185.148C-494.776 185.459 -494.157 185.204 -494.636 186.113C-493.228 184.726 -488.226 181.519 -487.787 183.183C-491.147 185.592 -489.139 183.728 -491.643 184.769C-492.383 186.76 -490.349 186.575 -488.084 185.989C-489.816 187.843 -488.776 189.36 -491.363 191.403C-490.466 190.714 -489.346 190.382 -488.218 190.468C-488.323 191.439 -490.395 192.688 -489.934 193.725C-487.167 191.636 -483.966 190.196 -480.567 189.51C-481.728 187.891 -476.898 185.89 -475.371 185.785C-475.852 186.612 -476.503 187.328 -477.28 187.886C-478.058 188.443 -478.945 188.829 -479.883 189.019C-477.749 189.893 -482.466 190.87 -481.062 191.844C-478.888 190.486 -476.869 188.896 -475.039 187.103C-474.022 186.094 -472.794 185.322 -471.443 184.843C-470.093 184.364 -468.653 184.19 -467.227 184.332C-473.913 186.767 -474.367 189.025 -477.558 191.737C-477.397 194.591 -475.505 194.601 -472.992 193.837C-470.266 192.942 -467.481 192.238 -464.658 191.729C-461.249 190.076 -457.663 188.818 -453.968 187.979C-450.648 187.153 -447.416 186.005 -444.319 184.552C-446.852 184.764 -451.628 187.104 -453.087 185.463C-452.277 183.044 -448.468 184.744 -448.222 182.918C-451.733 183.408 -452.67 184.928 -454.532 183.906C-453.567 183.544 -454.115 183.042 -453.364 182.645C-450.267 181.839 -446.341 181.994 -446.45 183.156C-447.164 182.16 -443.974 183.456 -444.328 182.107C-445.57 182.149 -445.835 181.254 -446.49 180.734C-450.316 181.968 -452.728 182.283 -453.856 181.3C-449.083 177.314 -443.726 178.282 -440.003 174.341C-437.522 174.793 -434.962 174.415 -432.718 173.267C-434.128 173.666 -434.681 173.355 -434.602 172.544C-428.665 171.824 -424.046 171.106 -419.538 170.561C-415.029 170.016 -410.802 169.014 -405.35 168.735C-407.868 169.735 -410.475 170.499 -413.135 171.016C-411.394 171.276 -408.804 171.211 -408.041 172.078C-410.616 173.217 -412.675 174.221 -412.334 175.485C-415.987 177.1 -419.88 178.107 -423.858 178.465C-421.803 179.821 -418.392 178.271 -415.901 177.476C-415.856 177.867 -415.188 177.813 -414.987 178.093C-418.271 180.872 -416.239 182.196 -414.301 185.096C-429.214 189.986 -443.064 188.931 -456.4 196.745L-464.835 198.973C-468.29 199.731 -471.578 201.113 -474.536 203.051C-474.761 202.081 -476.135 202.924 -476.146 201.659C-480.818 204.928 -486.019 207.364 -491.521 208.861C-490.662 211.309 -496.991 211.745 -498.384 214.204C-498.945 213.947 -499.51 214.21 -499.076 213.239C-502.178 218.243 -507.816 217.146 -512.262 222.312C-509.741 220.506 -512.874 225.532 -508.715 221.938C-508.557 220.647 -511.145 222.03 -509.785 220.773C-508.402 222.703 -504.06 218.508 -501.207 218.678C-499.412 214.611 -494.703 214.017 -490.16 210.761C-489.255 211.102 -486.84 212.435 -486.003 210.515C-488.368 212.21 -486.317 209.09 -486.465 208.489C-484.743 207.475 -482.938 206.608 -481.07 205.896C-479.202 205.216 -477.222 204.693 -475.63 204.023C-475.884 206.232 -476.063 205.653 -479.097 206.743C-478.249 207.927 -477.791 207.316 -477.735 208.643C-474.563 207.548 -475.037 206.427 -473.864 205.303C-473.539 207.992 -466.147 202.27 -463.128 202.604C-463.619 201.919 -463.122 201.233 -461.654 200.652C-461.675 201.28 -462.142 201.615 -461.14 201.698C-449.174 195.702 -436.456 191.342 -423.327 188.737C-419.387 186.479 -406.671 182.927 -406.623 187.134C-390.696 186.749 -374.36 184.043 -356.773 185.908C-350.608 184.626 -344.22 184.909 -338.19 186.73C-338.983 186.544 -336.482 186.024 -335.057 186.699C-329.861 189.15 -339.236 189.082 -343.72 188.478C-339.758 188.749 -343.898 191.056 -344.72 191.881C-353.208 192.261 -360.047 191.789 -367.332 192.863C-369.282 192.705 -369.618 191.579 -371.857 191.675C-374.934 193.362 -378.504 191.208 -382.398 191.689C-384.588 191.986 -386 193.893 -388.149 194.114C-390.299 194.335 -392.964 192.851 -394.984 193.121C-396.213 193.247 -398.249 194.283 -399.273 194.498C-399.273 194.498 -398.887 193.656 -398.665 193.638C-400.854 193.935 -401.715 195.165 -403.584 195.515C-403.802 195.671 -404.321 194.487 -404.41 194.362C-407.206 194.01 -410.006 196.676 -412.764 197.428C-415.063 196.718 -410.725 195.212 -413.992 195.715C-413.882 197.05 -416.962 197.42 -417.819 198.458C-420.409 196.685 -425.694 200.614 -425.338 198.285C-430.031 199.952 -437.761 203.56 -442.037 204.692C-441.214 204.526 -441.079 205.042 -440.954 205.612C-444.098 206.463 -447.073 207.847 -449.751 209.702C-449.974 209.391 -449.4 209.074 -449.401 208.744C-453.115 210.134 -456.126 211.914 -459.079 213.183L-466.676 216.648C-466.904 217.449 -467.243 218.215 -467.682 218.924C-469.641 218.82 -469.844 219.39 -470.389 220.864C-471.92 220.831 -472.284 219.206 -473.461 220.851C-471.004 220.598 -474.938 223.324 -475.814 224.139C-476.26 223.517 -477.571 224.645 -477.769 223.514C-478.305 222.767 -476.392 222.15 -476.722 221.492C-480.239 224.012 -479.681 224.79 -478.89 226.486C-477.198 226.216 -475.024 224.846 -473.338 224.439C-473.61 221.759 -466.616 219.622 -464.84 219.668C-465.556 220.181 -465.043 220.568 -465.634 220.992C-465.902 220.618 -466.041 219.964 -466.775 220.254C-469.07 224.02 -472.843 224.933 -477.454 227.436C-475.343 227.95 -477.803 229.053 -477.004 230.366C-473 227.65 -468.82 225.205 -464.491 223.047C-466.649 223.322 -463.377 221.118 -462.965 220.445C-460.947 220.287 -458.974 219.767 -457.14 218.91C-457.897 219.17 -458.085 218.644 -458.273 218.119C-454.929 218.645 -451.795 216.116 -447.888 215.39C-451.914 216.673 -449.652 216.937 -452.276 218.535C-449.486 217.761 -447.777 217.714 -446.316 215.677L-445.887 216.736C-440.565 213.252 -430.497 212.447 -422.752 209.582C-422.485 209.956 -422.577 210.682 -421.785 210.538C-418.056 208.985 -414.093 208.073 -410.06 207.838C-406.92 207.643 -403.822 207.01 -400.858 205.957C-400.352 207.385 -403.769 208.467 -405.493 207.77C-404.575 210.365 -400.841 207.688 -399.217 207.326C-399.217 207.326 -398.98 208.051 -399.095 208.087C-396.421 207.349 -395.361 205.411 -392.469 204.846C-388.65 204.324 -387.374 206.237 -382.501 205.149C-384.125 203.343 -377.24 204.866 -375.431 203.711C-383.163 203.832 -366.857 201.478 -366.811 204.367C-369.229 204.215 -369.516 205.128 -371.087 205.499C-367.161 205.325 -368.989 205.928 -368.172 207.464C-365.061 207.072 -364.663 208.154 -362.61 208.191C-362.951 206.927 -365.795 207.033 -366.865 206.197C-366.138 206.227 -365.413 206.093 -364.743 205.807C-363.099 206.326 -362.023 208.288 -360.486 206.621C-360.545 206.923 -360.509 207.236 -360.383 207.517C-360.258 207.799 -360.048 208.034 -359.784 208.192C-368.401 209.166 -377.088 209.382 -385.744 208.84C-391.875 210.406 -398.796 208.768 -404.822 211.861C-405.028 211.113 -407.047 212.042 -407.004 211.116C-415.066 213.736 -424.938 211.856 -430.542 216.721C-428.732 216.224 -426.339 215.028 -425.887 216.118C-427.934 216.548 -436.21 220.642 -435.175 217.355C-436.724 218.145 -438.323 218.834 -439.961 219.418C-440.278 221.342 -436.856 218.23 -436.529 219.409C-439.242 220.552 -444.899 223.57 -447.808 222.402C-458.505 227.194 -465.432 231.593 -472.67 233.717C-471.906 235.573 -474.184 233.577 -475.211 234.313C-476.238 235.049 -473.659 235.557 -474.593 236.226C-475.526 236.895 -474.983 236.93 -475.312 237.26C-476.925 238.888 -477.559 237.74 -478.822 238.409C-478.713 239.745 -481.444 240.995 -483.061 242.484C-485.233 240.506 -487.268 244.698 -489.135 246.036C-491.002 247.374 -492.797 249.274 -494.846 250.884C-496.861 252.479 -498.776 254.197 -500.579 256.029C-503.926 259.206 -506.926 262.731 -509.528 266.544C-505.325 262.353 -504.577 260.309 -500.357 257.85C-499.473 256.337 -498.439 254.918 -497.271 253.612C-495.895 252.266 -494.448 250.993 -492.938 249.799C-490.094 247.195 -486.435 245.138 -483.729 242.539C-483.149 243.348 -482.304 242.884 -481.631 243.297C-481.78 244.206 -482.873 245.178 -483.045 246.055C-481.057 245.149 -477.35 239.805 -473.038 239.448C-473.539 238.158 -471.478 237.812 -470.175 237.396C-469.406 235.149 -467.857 233.253 -465.809 232.052C-463.606 230.678 -461.266 229.538 -458.827 228.65C-458.589 229.376 -463.709 231.301 -461.782 231.098C-460.163 230.268 -458.403 229.242 -458.022 230.43C-458.893 231.055 -461.358 231.69 -460.978 232.549C-458.994 232.163 -455.914 229.626 -455.672 232.328C-453.324 231.399 -457.077 231.355 -454.76 230.119C-454.559 230.399 -454.083 230.34 -453.447 229.979C-451.957 231.268 -453.638 232.143 -453.912 233.141C-450.984 233.021 -451.579 231.468 -451.651 230.907C-449.509 231.069 -452.466 232.858 -450.623 232.999C-448.447 232.627 -446.337 231.94 -444.359 230.96C-444.586 231.043 -444.829 231.068 -445.068 231.033C-445.306 230.999 -445.533 230.905 -445.726 230.762C-444.694 230.493 -443.883 228.733 -442.928 229.605C-443.52 230.028 -444.61 230.15 -444.453 230.698C-440.803 230.533 -436.028 227.534 -433.44 228.648C-432.133 227.712 -434.901 227.858 -433.358 226.988C-430.107 225.412 -429.819 227.326 -427.509 226.802C-427.35 226.169 -428.759 225.058 -427.504 224.772C-425.4 224.159 -421.78 222.507 -421.696 224.332C-422.256 224.734 -426.256 225.856 -424.546 225.81C-421.273 224.265 -418.62 224.484 -417.519 222.47C-414.902 222.244 -417.435 224.625 -415.068 224.248C-414.352 223.735 -415.373 222.77 -414.217 222.412C-413.209 222.963 -406.153 223.279 -409.565 222.331C-407.191 222.131 -404.829 221.807 -402.489 221.36C-402.477 220.785 -402.972 219.962 -402.087 219.752C-391.025 219.412 -381.499 217.063 -371.419 217.851C-371.198 217.174 -372.472 216.908 -371.471 216.662C-367.637 217.214 -364.541 217.918 -361.949 216.343C-361.956 216.578 -362.019 216.809 -362.134 217.015C-362.249 217.22 -362.413 217.395 -362.61 217.523C-360.029 217.321 -357.436 217.721 -355.036 218.694C-356.996 220.099 -360.409 218.491 -361.161 221.057C-356.487 221.006 -354.378 218.034 -348.946 219.042C-347.888 218.284 -350.605 217.45 -348.851 217.466C-348.22 217.798 -347.52 217.978 -346.807 217.991C-346.094 218.004 -345.388 217.85 -344.746 217.54C-344.913 218.885 -342.882 219.221 -341.488 219.918C-336.027 218.927 -330.723 222.714 -325.219 221.126C-314.076 224.121 -297.277 228.107 -287.525 229.555C-287.158 230.658 -283.489 231.375 -284.426 232.565C-279.796 232.452 -278.246 235.536 -274.672 235.001C-275.577 234.66 -276.365 234.282 -275.894 233.756C-274.117 234.096 -272.37 234.577 -270.67 235.197C-270.798 235.807 -271.18 236.457 -269.51 236.816C-266.357 235.169 -261.286 239.877 -257.922 241.614C-257.433 240.981 -258.703 240.524 -259.082 239.995C-256.152 240.863 -250.708 242.807 -250.771 245.02C-252.815 244.599 -252.712 242.31 -254.322 243.087C-253.306 243.585 -253.772 244.249 -253.162 244.707C-244.436 246.578 -236.068 249.844 -228.379 254.376C-226.494 255.429 -225.022 254.657 -224.189 255.097C-221.894 256.327 -220.812 258.757 -216.536 260.122C-217.32 259.883 -215.507 260.704 -213.551 261.659C-212.793 262.059 -204.672 265.241 -203.492 267.742C-203.628 268.735 -209.52 265.18 -207.709 266.852C-205.553 267.521 -203.541 268.59 -201.778 270.001C-201.457 267.886 -197.134 270.632 -196.223 272.1C-198.842 271.338 -202.206 269.601 -203.79 270.218C-198.943 272.117 -189.504 275.297 -191.724 278.114C-191.444 277.913 -190.183 278.424 -190.218 278.967C-193.701 278.116 -192.866 279.545 -195.938 278.872C-184.827 281.231 -179.717 290.53 -168.667 291.424C-168.874 292.185 -169.944 291.679 -170.098 292.45C-167.785 293.903 -167.391 292.678 -164.498 294.94C-165.089 295.364 -164.072 296.191 -164.521 296.748C-162.773 297.825 -160.89 298.662 -158.92 299.239C-162.321 297.386 -163.298 295.825 -163.168 294.364C-158.478 297.885 -155.063 297.982 -151.596 302.426C-154.391 300.235 -154.437 302.011 -157.232 299.82C-156.945 301.075 -158.238 302.096 -155.431 303.713C-154.933 303.357 -154.948 302.283 -153.888 302.843C-155.27 304.069 -145.771 310.553 -141.626 313.38C-140.078 312.647 -142.89 311.222 -141.93 310.392C-140.679 311.693 -139.228 312.786 -137.632 313.628C-139.689 313.453 -139.119 313.657 -139.655 315.078C-137.435 316.927 -137.991 314.639 -136.052 316.031C-136.935 317.229 -132.582 319.294 -132.727 320.67C-128.781 321.707 -128.399 323.225 -129.422 323.769C-126.01 324.718 -125.082 325.749 -122.438 326.022C-121.478 327.361 -122.811 326.29 -123.254 327.314C-121.288 328.089 -119.566 329.378 -118.27 331.048C-116.876 331.416 -115.839 331.285 -114.476 331.675C-113.583 333.25 -111.645 333.982 -114.34 333.18C-106.751 339.43 -101.734 337.625 -98.2904 341.049C-96.2244 339.003 -93.476 342.312 -91.2807 344.98C-89.7939 344.952 -92.3761 342.466 -90.4106 343.697C-88.7166 345.805 -86.547 347.48 -84.08 348.586C-84.1262 350.034 -85.8915 348.754 -86.6207 349.182C-84.6565 349.754 -82.7203 351.995 -82.0439 351.888C-82.8052 351.24 -83.3351 350.363 -83.5532 349.387C-81.8326 350.605 -81.0141 350.301 -78.9939 352.2L-79.642 353.136C-72.3852 355.9 -65.0073 363.762 -61.3338 364.288C-58.8515 365.714 -60.4175 366.223 -59.102 367.401C-58.6975 367.111 -58.9747 366.462 -59.185 365.906C-56.8691 366.508 -50.1751 375.191 -53.4077 370.155C-50.1396 372.809 -50.06 374.825 -47.4722 375.61C-49.0284 374.227 -48.4913 373.465 -46.7707 374.683C-48.1113 374.324 -48.016 375.246 -46.0634 376.722C-44.5831 377.041 -43.173 377.628 -41.9023 378.453C-44.4097 377.846 -39.0963 381.579 -37.9201 382.103C-38.3218 381.542 -39.3066 381.023 -38.9914 380.608C-37.5027 381.568 -33.2247 383.922 -32.723 385.542C-33.4529 385.641 -35.4291 383.475 -35.9757 383.961C-34.0124 386.372 -32.437 386.139 -29.9054 387.765C-30.2163 390.486 -21.8492 391.842 -22.8764 394.746C-27.6058 389.133 -34.2409 390.259 -35.7554 385.123C-37.2079 386.777 -38.7625 383.885 -42.2918 381.984C-42.2264 383.587 -43.9435 381.848 -44.5929 382.125C-41.565 384.904 -42.3515 383.346 -41.3403 383.706C-40.8047 384.453 -38.8344 385.822 -39.9553 386.295C-40.8156 385.686 -41.8816 384.659 -42.2861 384.949C-39.1884 386.971 -38.0191 388.537 -38.0524 389.739C-33.8772 391.884 -31.9707 394.807 -23.8627 400.402C-22.1345 400.907 -24.0796 398.719 -21.5081 400.27C-13.786 408.876 -3.45911 413.163 2.94564 419.602C5.07834 419.818 3.08274 416.77 6.48 419.473C7.79672 421.31 6.82669 421.534 5.70109 421.869C13.1648 425.711 15.3123 431.336 22.236 436.79C27.1103 436.691 34.2308 447.283 40.0342 448.874C36.631 446.877 33.8081 444.026 31.8452 440.603C35.284 441.72 43.4386 448.366 40.7342 449.456C45.2124 451.761 46.2905 456.88 49.0625 456.213C48.1815 458.73 55.7578 465.555 60.4117 468.959C59.7252 468.461 61.2151 470.08 62.7896 471.685C71.7253 479.421 81.3972 490.353 90.6598 496.77C90.3046 497.26 89.5707 497.551 91.1358 498.88C91.9448 498.3 92.62 497.534 94.3818 499.335C94.2146 500.35 91.7271 498.456 94.22 500.817C94.9844 500.975 95.6987 501.317 96.301 501.813C96.9032 502.31 97.375 502.946 97.6753 503.667C99.4311 504.671 97.5389 502.162 99.0816 503.46C100.068 504.322 100.77 505.462 101.096 506.73C100.598 507.087 99.3256 505.312 99.0515 506.31C101.245 507.829 103.358 509.461 105.382 511.2C106.471 510.419 103.268 509.038 103.991 507.483C112.675 513.204 120.719 519.844 127.982 527.288C135.556 534.963 142.649 543.218 149.719 550.453C149.65 551.869 145.554 546.745 147.063 549.245C153.605 555.021 155.885 555.507 158.67 561.76C160.807 564.281 161.905 563.447 163.59 564.549C164.927 567.598 172.995 572.939 173.497 577.386C174.881 576.819 176.251 580.834 178.437 581.387C177.442 582.43 178.655 583.399 180.044 583.629C178.596 585.421 182.923 587.646 182.58 589.73C184.481 590.017 185.838 592.108 187.376 595.107C189.052 596.263 187.408 593.575 188.818 595.016C190.869 599.061 196.525 602.878 196.087 606.539C199.004 607.323 206.105 617.034 206.423 620.105C208.54 619.248 214.298 627.611 213.512 628.222C216.514 630.351 219.398 632.643 222.152 635.085C221.409 635.1 220.575 634.66 219.863 634.652C229.66 647.992 238.941 657.46 249.477 675.314C250.006 674.935 250.688 675.294 251.437 676.077C252.759 682.719 264.862 691.719 261.186 694.542C263.842 698.248 262.529 694.051 264.777 696.399C270.136 705.19 275.452 710.571 277.093 716.277C280.987 720.461 281.891 722.971 286.518 728.375C285.927 729.128 284.782 726.414 284.124 726.744C288.865 733.951 292.143 737.21 293.977 743.909C295.337 742.652 297.629 747.23 299.12 747.01C296.637 742.757 293.386 737.498 293.914 734.292C296.55 737.116 295.665 739.824 297.403 740.605C294.942 731.717 289.728 729.043 284.467 719.994C284.903 719.681 285.42 719.877 285.905 720.094C284.338 716.821 282.208 713.849 279.612 711.313C272.032 695.677 257.211 680.847 250.091 665.918C245.58 662.647 240.067 654.626 234.93 647.986C237.227 648.036 241.298 656.148 243.493 655.989C242.198 654.183 238.842 649.895 236.039 645.918C233.236 641.941 231.205 638.778 233.039 638.972C232.199 639.574 231.56 640.786 230.128 638.984C228.695 637.183 229.625 637.035 228.456 635.469C225.705 635.508 217.717 622.851 214.78 618.688C215.182 619.248 215.134 619.707 214.693 619.881C214.271 618.109 208.954 614.568 208.088 611.323C209.294 613.004 210.27 613.907 210.942 613.661C209.706 609.834 207.801 612.236 205.515 608.784C206.03 607.991 207.477 610.536 208.122 610.121C202.88 604.451 195.104 593.338 190.319 588.567C188.649 588.538 192.037 590.965 190.275 591.003C189.493 589.913 187.005 587.69 187.641 587.328C188.277 586.967 189.058 588.057 189.619 587.985C181.042 577.069 171.564 567.46 161.122 554.205C160.978 551.244 152.04 544.688 149.059 540.792C143.328 534.221 137.261 527.95 130.883 522.004C120.434 511.959 111.317 500.159 101.358 492.967C101.691 492.446 102.448 492.187 100.86 490.826C100.362 491.183 100.097 492.127 99.1563 491.341C96.9016 489.121 95.2494 486.363 94.3556 483.328C93.0084 483.14 91.6937 482.765 90.4494 482.215C91.52 483.38 94.398 484.57 94.2984 486.008C92.943 484.906 92.3747 485.69 90.5541 483.413C89.6598 479.011 89.9943 481.646 86.5046 477.171C87.584 478.283 88.3592 478.576 88.9734 478.513C85.1857 476.514 82.165 470.525 78.4666 468.651C80.6898 471.143 82.7696 473.76 84.696 476.488C82.3582 474.162 79.8368 472.029 77.1562 470.108C77.0427 468.964 79.9401 471.035 78.2 468.936C74.039 467.205 71.816 459.371 66.2508 456.667C67.7618 457.658 69.4322 460.514 67.6933 459.074C66.6839 457.917 65.7871 456.665 65.0152 455.337C60.741 454.96 57.5505 448.668 53.4869 446.679C53.1192 446.27 52.8437 445.787 52.6791 445.263C52.5144 444.738 52.4646 444.185 52.5329 443.639C48.9484 441.973 45.6648 439.723 42.8158 436.982C43.2942 435.744 46.0433 439.382 46.9464 439.065C42.7354 435.54 38.1319 432.513 33.2272 430.044C31.6223 428.791 33.2288 428.535 31.9668 427.365C31.98 429.618 26.6612 425.418 23.059 422.626C24.2104 421.801 24.3783 421.115 25.238 421.394C26.3388 422.863 27.8225 424.002 29.5266 424.684C27.942 422.473 32.4303 425.383 33.0432 424.661C34.1368 426.187 34.2261 426.312 32.9883 426.162C38.5465 429.908 44.1051 436.152 49.6945 439.876C49.29 440.166 47.9177 439.5 48.9172 440.763C48.8066 438.769 51.3203 442.67 51.6701 441.712C50.2723 439.368 54.2478 441.892 55.5626 442.74C54.4581 442.448 54.2362 442.795 55.4542 444.232C58.5428 443.809 60.2311 449.057 62.8183 449.512C64.0904 451.287 60.7256 449.221 63.3789 451.608L64.3916 450.458C66.9062 452.521 73.9028 458.866 75.8871 460.649C77.8715 462.431 75.3113 457.479 78.2377 460.708C76.6189 461.538 86 467.069 84.6874 469.707C91.4989 474.676 92.6679 478.41 98.9607 482.195C99.7268 484.253 101.242 485.945 103.203 486.932C101.964 486.123 100.86 483.662 102.461 485.107C110.832 495.604 123.583 508.006 132.769 518.72C132.315 518.211 132.062 517.555 132.058 516.873L134.56 519.51C134.155 519.8 133.666 519.774 133.109 519.654C136.01 521.205 137.347 526.421 139.276 527.536C137.892 525.276 140.578 528.3 140.49 528.835C141.66 528.562 141.205 528.322 143.434 529.788C142.63 528.667 141.079 527.423 141.202 526.674C147.545 531.319 153.814 540.919 159.083 547.088C161.53 548.728 158.009 543.946 160.536 545.764C161.352 548.808 166.558 549.697 165.899 551.866C164.741 551.894 159.289 545.338 160.628 549.375C164.283 551.846 167.961 552.509 170.325 557.648C172.723 554.421 179.301 564.979 183.177 566.773C184.691 570.487 187.129 573.753 190.26 576.261C186.443 570.936 183.381 566.202 183.436 562.863C184.061 563.735 184.954 564.98 185.496 564.686C182.67 560.348 182.115 563.386 179.339 559.248C178.156 560.096 182.463 563.608 181.406 564.696C176.965 560.076 172.91 555.1 169.282 549.818C171.001 552.215 171.027 549.887 172.496 551.804C172.769 552.645 174.993 556.471 175.687 556.257C178.032 555.848 185.738 562.722 188.023 568.342C191.434 568.961 193.216 574.471 193.935 575.276C192.484 573.252 195.505 574.905 196.264 575.634C194.801 576.682 201.078 583.731 199.395 578.951C201.813 581.931 201.482 583.112 201.06 583.508C203.322 585.258 205.729 586.812 208.253 588.157C207.475 588.714 206.236 587.576 207.642 589.867C209.421 591.232 208.586 589.803 209.673 590.532C210.761 591.261 210.08 591.56 209.64 591.735C213.875 592.517 215.53 601.135 217.632 601.702C216.985 600.799 216.36 599.927 217.099 599.775C219.509 603.138 222.338 606.625 222.119 608.62C224.287 608.622 223.482 611.508 225.637 613.923C228.423 613.34 237.945 625.51 235.529 625.687C236.948 626.355 238.219 627.301 239.267 628.469C240.314 629.637 241.117 631.003 241.627 632.487C243.91 632.123 238.292 627.242 238.462 625.705C240.775 627.158 244.265 633.801 246.774 635.396C247.273 637.867 247.512 639.581 246.485 640.317C248.131 642.154 249.199 641.671 250.683 642.822C250.058 641.951 249.188 640.736 249.388 640.357C252.436 642.179 256.036 648.319 253.95 649.484C252.967 647.455 250.831 648.09 251.679 648.943C253.753 649.012 256.924 654.093 259.124 654.731C257.234 651.042 256.615 653.136 254.797 650.008C255.101 648.329 256.595 649.756 255.633 647.099C257.689 650.482 260.094 653.639 262.809 656.52C262.186 656.967 260.954 654.786 260.484 655.971C262.128 658.988 262.569 656.645 263.88 658.015C264.489 659.653 265.824 661.713 265.282 662.666C271.488 667.645 273.591 672.878 279.604 681.531C281.7 681.63 276.434 677.109 277.501 676.297C284.847 683.523 290.46 692.603 297.646 700.132C297.076 700.257 296.286 699.221 295.672 699.284C300.122 702.929 300.584 707.452 302.855 707.663C307.039 716.03 311.663 724.17 316.706 732.049C321.384 739.61 325.477 747.518 328.949 755.703C332.361 761.647 338.793 768.255 338.665 773.861C341.893 776.261 344.273 784.642 346.796 786.651C346.264 785.383 347.325 786.272 347.883 787.05C353.086 800.29 359.193 804.868 365.067 820.03C366.841 818.759 359.733 810.09 363.009 810.193C359.335 802.174 359.476 799.151 355.709 791.858C356.334 792.73 356.84 794.158 357.294 794.069C357.048 793.397 356.485 792.48 356.819 792.288C357.64 794.928 359.292 797.233 361.528 798.859C357.952 792.948 355.029 786.667 352.811 780.125C355.118 780.781 358.861 792.05 360.193 792.462C358.229 787.224 356.733 782.31 353.948 776.388C356.342 778.348 352.79 773.918 354.451 774.001C356.227 776.447 357.745 779.072 358.98 781.831C358.333 780.928 358.515 778.488 359.591 780.45C360.294 782.443 361.278 784.325 362.514 786.039C362.078 786.351 359.753 783.304 360.737 785.992C363.324 788.616 367.728 793.708 367.093 796.897C367.862 796.722 367.42 795.578 368.091 795.333C368.731 797.038 369.647 798.627 370.802 800.035L369.757 800.549C371.688 803.734 374.106 806.598 376.923 809.035C377.934 811.892 381.555 822.07 383.577 822.789C382.158 818.245 377.808 813.161 378.744 809.144C373.238 798.242 367.648 784.857 363.313 778.348C360.599 774.166 358.4 767.352 355.958 763.682C353.516 760.012 349.464 754.621 349.925 751.321C350.585 754.148 353.54 756.366 354.04 759.495C355.525 760.976 354.309 758.03 355.514 759.711C365.346 780.002 377.293 800.285 388.191 821.603C399.855 842.877 409.138 865.372 415.871 888.679C417.472 887.956 419.067 891.102 420.223 894.751C421.109 898.234 421.671 901.791 421.903 905.377C424.55 906.968 423.699 913.14 425.636 913.543C425.908 911.227 423.466 905.389 424.969 904.594C425.766 904.918 426.889 902.935 427.431 904.809C428.792 909.069 429.669 913.468 430.047 917.923C429.905 920.988 430.482 924.045 431.733 926.848C430.579 921.359 432.626 916.263 430.117 907.833C430.488 909.075 433.509 908.23 431.99 907.292C429.656 908.965 430.495 903.367 428.516 901.722C427.86 898.704 428.65 897.572 429.619 896.689C431.902 898.824 433.43 906.213 435.643 909.104C437.196 908.51 437.025 905.38 435.586 902.452C435.336 887.973 424.321 866.362 419.841 851.567C419.219 849.845 420.417 850.07 419.331 847.832C415.96 840.303 409.083 828.736 408.537 820.219C405.899 815.297 403.612 810.195 401.692 804.951C400.624 805.104 399.539 803.525 398.389 800.342C399.784 801.369 398.825 800.03 399.821 799.646C400.714 801.627 401.833 803.498 403.157 805.221C403.208 803.912 401.208 800.726 403.06 801.142C405.604 806.86 407.993 808.024 410.513 813.052C409.944 811.339 410.847 811.021 409.324 808.436C405.673 805.774 401.845 796.687 398.177 796.3C397.554 794.248 398.454 792.283 399.787 793.355C398.388 786.014 392.099 777.042 389.882 770.005C391.033 769.18 392.727 772.397 394.108 773.01C391.136 766.891 395.493 773.431 396.262 772.927C392.224 767.311 388.552 761.441 385.269 755.354C366.911 711.338 332.959 667.516 308.883 629.06C300.165 618.67 292.049 606.953 286.053 600.033C280.255 595.548 275.384 589.979 271.71 583.635C269.076 581.8 260.605 570.573 257.514 567.179C261.177 571.765 257.717 566.609 257.814 565.692C262.9 571.803 265.669 576.653 268.367 576.605C268.857 577.468 269.221 578.397 269.45 579.364C269.026 578.772 268.378 577.869 268.014 578.083C271.331 583.435 269.188 575.45 272.436 579.391C271.225 581.249 276.711 584.435 274.024 585.418C272.065 583.145 272.477 581.813 270.874 581.878C274.973 587.478 279.364 592.858 284.028 597.996C283.145 594.529 277.733 590.395 275.491 586.676C275.262 585.567 276.04 585.01 275.833 583.933C273.572 579.332 269.787 576.482 269.629 573.108C278.479 582.696 274.814 582.117 280.227 589.078C279.937 588.674 279.82 588.05 280.539 588.855C284.416 593.476 285.672 596.017 289.441 599.962C290.286 601.995 292.164 608.756 294.395 606.874C291.946 603.917 289.099 600.536 289.67 598.572C285.329 591.596 280.122 589.72 278.185 584.651C279.804 587.137 282.133 589.081 284.868 590.23C282.48 586.898 281.758 588.783 279.284 584.805C279.863 584.626 280.715 585.618 281.329 585.555C278.1 582.496 272.631 576.376 273.027 573.972C278.318 579.842 282.727 585.402 286.826 589.675C286.39 589.988 285.791 590.794 286.784 590.931L287.437 590.463C283.598 582.609 278.793 581.622 277.441 575.333C279.918 578.789 283.155 581.136 284.385 584.496C286.998 584.461 292.964 591.733 295.657 596.214C289.904 583.981 280.02 578.669 272.578 569.533C273.162 567.983 277.684 574.028 276.412 570.085C266.69 561.121 258.161 545.081 250.554 535.78C258.001 542.747 264.704 550.47 270.554 558.823C272.295 561.252 269.913 556.219 272.063 558.825C278.64 568.619 286.015 577.853 294.111 586.434C293.475 586.465 292.935 585.91 293.178 587.103C298.939 589.949 303.757 600.023 308.093 604.693C307.669 604.101 306.999 603.167 307.288 602.913C315.566 616.202 324.876 628.819 335.134 640.647L333.858 641.562C338.57 647.281 344.308 654.434 349.883 662.08C355.259 669.599 359.998 677.554 364.053 685.86C364.769 685.347 365.517 685.8 366.558 687.647L400.452 743.482C411.303 761.646 420.903 780.53 429.184 800C428.563 798.607 427.763 796.965 428.689 797.008C434.18 814.33 440.919 828.4 446.709 843.905C446.901 846.078 446.177 847.303 446.204 849.311C447.756 848.717 446.561 847.641 448.072 846.464C449.64 855.057 452.202 863.439 455.705 871.441L454.593 871.861C458.102 877.357 460.244 883.612 460.838 890.104C460.609 888.995 461.17 888.923 461.708 888.82C463.284 893.582 464.508 897.655 463.387 898.458C464.559 900.863 464.855 903.601 464.226 906.2C465.514 909.706 466.054 905.596 466.979 907.478C474.082 943.677 480.046 994.125 476.773 1035.17C480.642 1001.48 479.075 967.384 472.132 934.187C473.267 934.127 470.371 928.049 472.39 929.288C469.764 920.235 468.416 909.418 465.85 899.002C464.705 893.79 463.591 888.555 462.264 883.615C460.831 879.022 459.166 874.505 457.274 870.081C457.679 869.791 458.382 869.853 458.1 868.735C456.931 869.997 456.063 867.273 455.085 865.712C456.188 863.177 452.326 857.131 452.561 852.202C450.53 851.536 448.153 839.807 447.667 837.421C446.856 836.683 446.073 837.103 445.215 835.314C446.326 834.235 443.324 830.966 443.773 828.57C441.103 826.619 440.141 821.464 437.96 817.371C439.836 815.65 436.532 810.712 434.445 806.222C433.172 804.447 434.114 807.732 432.997 805.845C424.205 782.735 412.436 762.042 400.975 737.639C401.422 738.262 402.069 739.165 402.114 739.227C400.947 736.482 400.313 738.161 399.093 735.407C400.075 734.938 398.978 733.603 400.368 734.492C397.493 730.196 395.074 725.61 393.153 720.81C391.559 720.492 393.076 722.609 392.77 723.3C391.743 721.208 391.147 721.823 389.959 719.376C390.581 718.93 391.685 721.391 392.23 720.246C390.42 716.076 389.502 718.148 387.767 714.018C389.631 713.531 385.64 709.604 385.108 706.497C382.921 705.614 382.675 705.271 382.161 706.064C381.132 703.644 380.358 701.841 378.813 701.394L379.746 700.725C378.631 699.168 373.202 693.631 374.178 691.707C376.019 695.524 379.946 697.848 381.234 703.194C383.785 701.035 370.747 687.379 371.535 683.09C377.428 691.97 382.389 700.009 387.03 708.324C391.672 716.64 396.446 725.143 401.664 734.789C402.461 734.783 401.817 733.03 402.629 734.097C403.441 735.165 405.776 738.817 405.136 739.37C403.738 738.865 404.025 735.454 402.625 736.457C404.908 740.76 409.334 748.711 410.723 750.779C409.878 749.075 408.784 744.722 411.09 747.217C417.535 763.242 427.973 781.354 433.983 795.523C443.098 816.731 450.986 838.445 457.608 860.557L456.883 860.794C461.283 868.905 461.148 877.392 465.211 883.718C465.559 886.438 465.907 889.158 464.933 889.903C465.573 891.518 465.915 895.609 466.76 895.475C465.546 891.349 465.559 888.936 466.929 888.284C469.415 896.763 471.284 905.41 472.521 914.159C474.227 919.256 475.57 924.468 476.539 929.755C477.738 935.306 478.332 940.866 479.666 944.765C479.493 940.866 478.984 936.989 478.144 933.177C477.281 929.082 476.879 925.694 478.666 924.837C479.115 931.114 482.457 935.317 482.048 942.304C483.36 941.835 483.68 944.056 483.679 948.063C485.81 951.817 486.864 956.084 486.725 960.397C486.899 965.626 487.694 970.816 489.092 975.858C488.417 978.876 487.985 981.944 487.801 985.031C489.062 985.542 488.239 981.371 489.357 983.916C489.509 982.157 488.393 978.103 489.278 977.892C490.55 988.67 490.648 998.073 491.338 1007.05C492.027 1016.03 491.211 1024.82 490.9 1034.37C494.675 1034.45 490.245 1045.35 490.718 1048.64C493.065 1044.23 489.987 1057.09 489.553 1060.89C487.91 1070.03 486.888 1080.24 486.533 1085.39C489.312 1081.19 487.858 1075.02 490.255 1069.29C491.088 1069.73 491.691 1070.57 491.57 1072.64C490.699 1073.26 490.092 1079.45 491.404 1078.98C491.958 1074.46 493.13 1070.03 494.887 1065.83C494.818 1071.91 495.529 1080.26 491.833 1086.54C492.634 1091.34 489.639 1098.53 487.866 1107.3C490.504 1106.11 486.742 1115.45 484.644 1121.86C484.535 1127.36 487.135 1122.9 484.568 1130.82C486.318 1128.53 485.917 1126.13 487.29 1124.96C488.27 1127.51 489.321 1129.96 486.272 1137.14C485.937 1136.68 486.335 1135.26 485.978 1134.76C484.449 1138.86 483.379 1143.13 482.788 1147.46C479.858 1151.59 481.309 1151.12 480.033 1154.53C478.107 1160.06 472.516 1167.18 473.324 1170.6C475.811 1167.5 477.087 1161.92 479.73 1161.53C478.799 1165.69 475.482 1167.5 476.579 1168.51C479.072 1166.2 482.364 1155.88 484.323 1156.31C483.361 1158.32 482.528 1160.38 481.499 1162.29C482.573 1162.94 484.971 1157.54 484.631 1161.27C485.109 1159.71 487.412 1156.22 486.535 1156.04C485.614 1158.31 484.792 1159.13 484.105 1158.63C485.249 1156.02 487.874 1150.75 489.945 1146.67C488.838 1152.36 487.042 1157.88 484.599 1163.13C481.704 1169.22 478.493 1175.38 476.141 1179.33C476.613 1180.55 476.644 1181.89 476.228 1183.13C478.935 1178.69 481.179 1174.07 477.845 1178.82C478.711 1176.62 480.291 1174.77 482.331 1173.57C480.299 1181.58 479.029 1178.96 475.89 1185.36C477.927 1182.15 479.336 1181.09 478.475 1184.49ZM294.029 738.593C292.525 738.728 291.99 736.142 291.614 734.762C292.427 734.32 293.845 737.876 294.029 738.593ZM211.812 623.879L206.027 618.174C206.575 618.347 207.07 618.511 207.483 618.167C208.374 619.776 209.71 621.093 211.332 621.96C211.823 622.645 211.062 622.766 211.785 623.709L211.812 623.879ZM-38.2287 388.31C-37.6997 387.931 -38.1644 387.086 -38.936 386.272C-38.2514 385.781 -36.6911 386.972 -34.9522 388.413C-36.6533 388.076 -34.8969 389.41 -36.5757 389.105C-35.3671 390.265 -32.0563 391.993 -33.56 392.458C-34.882 390.842 -36.434 389.43 -38.1665 388.265L-38.2287 388.31ZM-471.368 193.145C-471.068 194.155 -472.833 193.204 -474.161 194.439L-474.831 193.505C-473.524 192.568 -472.864 192.897 -471.846 192.544C-471.938 192.94 -472.116 193.35 -471.306 193.1L-471.368 193.145ZM-642.435 138.151C-647.3 142.864 -650.966 150.958 -653.499 151.171C-651.698 147.9 -644.621 137.597 -642.372 138.106L-642.435 138.151ZM269.565 428.171C265.609 424.502 261.99 420.486 258.751 416.172C262.902 419.643 266.543 423.682 269.565 428.171ZM482.276 1172.58C481.594 1172.22 483.227 1169.63 481.888 1169.93C483.328 1166.69 484.308 1166.74 485.779 1163.14C486.069 1163.54 485.186 1165.07 484.632 1166.27C484.899 1166.64 485.389 1166.34 485.752 1165.47C486.221 1166.45 483.049 1171.88 482.276 1172.58ZM488.994 1124.45C488.591 1123.23 489.489 1120.27 490.645 1117.09C491.555 1117.9 490.417 1121.31 490.083 1123.67C489.691 1123.38 489.362 1123.71 488.994 1124.45ZM491.825 1068.59C491.262 1067.34 491.801 1058.57 493.508 1059.37L491.825 1068.59ZM532.81 945.373C532.818 949.656 529.891 936.765 531.687 937.694C531.807 940.284 532.183 942.856 532.81 945.373V945.373ZM530.16 916.635C529.561 917.771 528.311 911.362 528.576 914.754C528.018 913.976 525.485 904.526 526.968 905.019C527.644 908.987 528.713 912.878 530.16 916.635V916.635ZM345.381 781.916C344.416 782.607 341.988 777.183 341.719 775.82C343.496 776.526 344.666 780.919 345.381 781.916ZM387.158 712.38C385.954 713.526 384.726 708.986 383.788 707.679C384.709 707.254 386.885 711.21 387.07 712.585L387.158 712.38ZM325.133 618.545C325.865 616.936 328.319 622.53 329.414 622.546C329.471 621.705 327.919 620.46 326.967 618.409C318 612.864 309.91 595.99 301.018 585.16C293.856 576.153 286.524 569.341 281.877 562.397C281.809 561.645 280.862 560.39 281.619 560.131C278.695 558.22 277.401 554.246 274.395 551.169C274.587 549.334 275.837 551.407 272.63 547.72C274.318 548.631 273.439 547.14 274.105 546.427C275.943 548.268 274.683 548.417 275.037 549.436C276.347 550.146 277.809 551.267 279.011 551.301C279.994 553 279.479 553.793 280.154 555.195C280.828 556.597 282.136 555.99 283.474 557.528C283.256 555.187 277.95 550.411 277.757 547.25C280.906 550.791 280.634 552.447 283.783 555.987C282.849 553.829 280.711 550.978 279.255 548.486C273.008 542.924 270.855 546.164 264.881 539.275C264.514 540.34 266.553 542.79 267.58 544.552C261.682 540.201 259.02 533.201 254.336 530.477C253.857 529.218 252.238 527.55 252.82 526.85C250.885 524.938 245.879 521.503 246.321 519.819C245.094 518.436 244.919 520.164 243.594 518.38C241.351 511.834 230.288 504.35 227.409 498.165C221.97 494.152 217.238 489.26 213.408 483.69C207.783 482.019 197.099 467.901 193.445 461.752C188.209 456.549 188.029 457.809 183.355 452.864C184.56 454.546 186.428 458.203 187.305 458.376C186.122 459.223 183.2 455.803 178.57 450.92C179.17 451.161 179.708 451.531 180.148 452.005C177.056 448.282 171.371 443.637 165.877 438.666C160.383 434.341 155.899 428.869 152.737 422.632C154.883 425.013 157.35 427.084 160.067 428.784C158.053 427.683 151.625 418.715 149.103 419.533C148.394 419.058 147.793 418.439 147.34 417.716C146.886 416.993 146.591 416.183 146.473 415.338C147.251 414.78 148.163 414.409 150.255 416.869C151.176 416.445 147 413.97 148.999 413.999C153.45 418.303 155.379 421.586 160.057 426.011C157.847 422.427 155.127 419.185 151.981 416.386C162.493 423.786 171.958 432.571 180.121 442.503C181.307 441.135 176.99 437.347 177.379 435.654C183.858 443.643 190.221 447.001 194.501 452.512L193.878 452.958C193.622 453.849 192.417 452.496 191.36 451.416C191.707 453.477 195.031 454.96 195.094 453.076C197.28 454.958 199.36 456.961 201.324 459.075C200.639 459.565 199.074 457.907 197.472 456.132C198.315 459.346 204.407 462.851 208.103 465.905C210.854 468.034 207.576 467.272 209.204 468.887C216.339 475.39 222.725 482.67 228.245 490.59C230.273 492.106 230.875 492.288 230.97 490.711C233.454 493.126 234.396 494.901 233.877 495.886C237.722 497.372 240.368 502.97 242.922 507.125C245.189 509.696 242.553 504.704 244.44 507.074C246.328 509.445 245.154 508.071 244.482 508.317C246.798 511.087 247.592 509.435 250.377 513.518C249.75 513.507 249.129 513.651 248.569 513.937C248.01 514.223 247.53 514.641 247.171 515.157C248.563 516.704 248.674 514.362 249.533 514.312C252.49 517.189 251.143 517.872 253.008 520.211C253.369 518.02 259.531 521.098 259.245 525.168C257.857 523.776 256.784 522.1 256.102 520.257C255.435 520.97 256.377 522.416 254.657 521.527C258.473 524.354 258.025 525.241 260.499 529.218C261.425 528.932 263.777 529.98 263.13 526.908C264.596 529.676 266.689 532.794 267.981 535.451C267.172 536.031 265.373 533.455 263.784 531.436C262.669 530.208 263.579 533.515 263.518 534.219C265.017 535.784 263.24 532.91 265.027 534.221C266.175 536.158 267.489 537.992 268.955 539.702C269.377 541.473 268.55 539.992 267.679 540.616C272.352 544.573 272.487 540.752 276.214 545.952C276.32 545.311 276.047 544.47 274.994 543.198C279.773 546.997 283.844 551.61 287.021 556.825C289.713 561.672 293.159 566.059 297.231 569.822C298.394 572.759 297.025 571.572 299.825 573.901C299.399 576.658 296.388 573.772 293.633 571.505C294.019 570.663 294.808 571.37 295.4 571.275C292.699 567.508 289.757 560.379 284.35 556.712C289.682 563.496 291.736 568.858 295.958 574.552C294.351 574.478 294.864 574.865 294.996 576.561C297.289 578.971 295.207 573.11 297.705 575.609C297.704 577.448 303.139 581.613 304.652 586.09C305.433 587.18 305.212 585.689 304.694 584.835C306.396 585.5 305.876 588.324 308.146 590.703C307.893 589.72 307.503 588.778 306.988 587.904C308.287 587.68 307.944 589.764 309.22 591.018C309.531 590.795 308.746 589.896 308.361 589.229C309.38 588.876 311.591 592.947 312.705 593.186C312.975 594.878 314.041 598.403 316.29 598.912C322.761 610.428 329.836 621.594 337.486 632.363L336.553 633.032C342.262 639.924 347.483 647.207 352.175 654.829C346.002 650.816 341.418 639.82 335.183 631.515C332.058 626.826 327.988 624.04 325.045 618.75L325.133 618.545ZM368.033 678.86C362.1 675.052 357.683 662.711 351.508 655.212C356.955 659.132 363.774 672.721 367.944 679.065L368.033 678.86ZM391.23 597.661C388.079 595.96 386.807 592.017 382.926 587.587C386.486 590.267 389.312 593.803 391.141 597.866L391.23 597.661ZM274.937 553.042C274.32 553.956 273.133 552.827 271.585 550.731L272.518 550.062L274.937 553.042ZM331.753 495.683C329.539 494.631 327.277 490.03 325.425 487.775C327.963 490.094 330.075 492.84 331.664 495.888L331.753 495.683ZM272.137 541.71C270.508 539.437 272.367 538.482 273.57 539.175C275.579 542.307 272.816 540.752 272.137 541.71ZM270.628 539.21C270.254 539.477 269.259 538.023 268.518 537.187C269.823 537.1 268.417 535.468 269.374 535.16C270.931 537.201 270.06 537.826 270.597 539.232L270.628 539.21ZM321.329 494.152C320.158 494.095 316.13 489.724 317.781 489.201C319.096 490.753 320.273 492.417 321.298 494.174L321.329 494.152ZM304.66 467.214C303.509 465.114 301.946 463.268 300.064 461.787C298.769 459.652 306.866 466.151 304.539 467.111L304.66 467.214ZM240.263 522.606C238.973 523.106 236.852 519.489 235.678 517.785C237.257 517.36 238.318 520.417 240.263 522.606ZM304.69 461.866C303.561 463.052 299.501 455.875 297.911 455.695C295.703 452.942 300.365 455.963 298.402 453.882C300.61 456.403 302.687 459.037 304.623 461.773L304.69 461.866ZM173.936 557.559C173.251 558.05 171.765 556.239 171 556.552C170.174 555.4 171.398 555.136 169.173 553.148C170.075 552.502 172.147 555.589 173.869 557.466L173.936 557.559ZM168.624 550.148C165.716 547.495 163.004 544.634 160.51 541.587C162.504 541.478 166.687 547.577 168.557 550.055L168.624 550.148ZM159.725 554.688C158.786 552.391 156.055 551.144 155.794 549.728C156.392 548.263 161.671 554.707 159.658 554.594L159.725 554.688ZM165.38 548.184C164.432 548.028 163.544 547.621 162.806 547.007C162.067 546.393 161.506 545.593 161.179 544.69C162.889 545.32 164.336 546.507 165.29 548.06L165.38 548.184ZM155.97 537.159C153.68 536.165 151.775 534.453 150.543 532.281C151.04 531.595 152.831 534.554 153.848 535.38C154.532 534.89 151.818 532.876 151.192 531.675C153.553 532.669 153.957 534.548 155.81 537.132L155.97 537.159ZM134.154 516.643C132.192 517.389 129.158 511.316 127.372 510.663C129.785 511.008 130.966 514.167 134.087 516.55L134.154 516.643ZM132.762 512.927C130.472 511.417 128.551 509.411 127.142 507.057C127.545 506.108 129.81 510.188 129.837 508.189C130.667 509.81 131.623 511.363 132.695 512.834L132.762 512.927ZM183.934 457.681C178.437 453.837 173.259 449.557 168.449 444.883C169.236 444.601 171.477 447.991 171.531 445.831C176.006 450.826 179.585 453.257 183.867 457.588L183.934 457.681ZM127.2 509.372C125.573 508.417 118.941 504.027 119.167 500.99C121.509 504.088 124.205 506.901 127.2 509.372V509.372ZM126.268 503.866C125.347 504.29 122.887 502.895 122.306 501.427C123.112 501.492 123.89 501.748 124.579 502.172C125.267 502.596 125.846 503.176 126.268 503.866ZM122.039 501.712C118.669 498.696 115.456 495.508 112.415 492.16C115.067 492.05 118.397 498.996 120.019 497.316C120.871 498.188 121.586 499.186 122.139 500.274C120.94 499.389 119.034 498.964 122.039 501.712V501.712ZM217.934 371.379C217.768 373.054 215.29 369.597 213.846 368.37C214.23 366.869 217.307 369.848 217.934 371.379V371.379ZM106.418 485.24C100.966 480.853 94.7025 473.888 86.347 466.962C85.7048 468.695 89.6955 469.794 90.2918 472.006C89.2338 472.764 86.1858 468.774 84.1169 467.005C83.783 464.699 86.3416 466.494 86.4623 464.428C94.196 472.13 100.379 476.748 106.512 485.173L106.418 485.24ZM147.96 413.47C146.57 414.75 142.822 410.507 139.415 407.199C141.345 406.146 145.396 410.878 148.054 413.403L147.96 413.47ZM137.095 407.117C135.718 408.481 126.076 396.869 133.961 404.65C135.134 405.241 136.201 406.021 137.122 406.957L137.095 407.117ZM76.0607 458.262C75.6052 459.861 72.6369 455.719 70.9163 454.502C72.5451 454.277 72.9752 455.666 76.0871 458.102L76.0607 458.262ZM71.5578 452.439C70.6865 453.064 68.9436 451.815 67.2095 450.513C67.5094 450.633 67.842 450.645 68.1494 450.545C68.4568 450.445 68.7193 450.241 68.8911 449.967L71.5578 452.439ZM52.8836 440.843C52.5725 441.066 49.5871 439.529 49.9727 438.687C49.3262 438.113 49.14 438.577 48.793 438.684C47.0353 436.691 48.4259 437.58 49.1146 436.898C51.4277 438.351 50.7167 439.002 52.91 440.682L52.8836 440.843ZM46.4302 434.533C45.789 434.427 45.1478 434.321 45.9195 435.135C45.498 435.861 43.396 433.125 42.2773 432.419C43.0765 432.405 43.8685 432.573 44.5928 432.912C45.3171 433.25 45.9547 433.75 46.4566 434.372L46.4302 434.533ZM27.9562 422.887C26.4971 423.414 25.2895 420.415 22.7544 419.309C23.0361 417.599 26.2085 421.5 27.9826 422.727L27.9562 422.887ZM17.5336 431.347C15.2226 428.714 12.9117 426.081 14.8235 424.805C15.4638 426.75 18.2244 429.485 17.56 431.186L17.5336 431.347ZM23.3372 421.437C21.952 421.016 17.994 418.385 21.678 422.013C19.698 422.537 17.344 418.332 14.665 416.435C17.8232 417.532 20.7667 419.17 23.3636 421.276L23.3372 421.437ZM127.424 284.856C125.558 284.355 127.524 285.915 125.658 285.415C122.507 281.875 119.035 278.636 115.285 275.739C117.751 275.763 123.358 281.548 127.45 284.695L127.424 284.856ZM13.299 423.73C13.089 425.671 6.66855 420.327 8.52809 419.702C10.7227 422.041 12.3604 421.763 13.299 423.73ZM17.7921 415.277C17.0148 416.164 12.7249 412.216 12.0236 410.975C14.211 411.858 14.641 413.247 17.7611 415.3L17.7921 415.277ZM113.901 273.809C113.726 275.537 109.373 270.974 108.998 270.253C111.008 270.806 112.75 272.07 113.901 273.809V273.809ZM4.19846 408.995C3.61728 410.024 0.871376 408.033 0.263458 406.725C1.7742 407.066 3.14616 407.858 4.19846 408.995ZM-11.5993 400.097C-16.0009 395.993 -20.8072 394.347 -23.9027 391.146C-23.705 389.778 -22.0196 391.21 -21.8801 389.696C-21.2363 391.12 -17.0341 393.434 -18.5994 394.273C-16.4051 394.115 -13.731 398.043 -11.3632 400.163L-11.5993 400.097ZM-12.6929 398.571C-13.4347 397.076 -11.8247 396.299 -9.45624 398.749C-12.9594 398.856 -6.22873 401.15 -7.19086 403.159C-8.85263 401.536 -10.6337 400.039 -12.5191 398.682L-12.6929 398.571ZM-24.806 398.297C-27.3756 397.735 -27.7076 396.418 -29.6878 394.443C-26.9444 395.117 -26.6125 396.434 -24.6322 398.408L-24.806 398.297ZM38.732 208.624C38.6176 209.319 37.5835 208.599 37.2993 208.991C34.5892 207.115 34.2173 205.874 31.0932 204.012C32.2135 203.209 37.5803 206.951 38.9058 208.735L38.732 208.624ZM-71.2958 352.951C-73.7444 352.821 -75.7096 349.422 -77.8898 349.994C-80.12 347.523 -82.8774 345.584 -85.9578 344.323L-84.8659 342.692C-80.9067 345.982 -75.1941 348.958 -71.122 353.062L-71.2958 352.951ZM24.6241 198.798C21.8945 196.041 20.5545 196.011 18.2624 193.931C19.3914 193.074 26.0649 198.048 24.7979 198.909L24.6241 198.798ZM-86.2628 343.175C-90.7823 342.218 -94.7785 339.598 -97.4592 335.834C-99.7681 335.689 -102.019 335.049 -104.06 333.959C-106.101 332.868 -107.885 331.352 -109.29 329.514C-106.823 329.867 -102.452 334.652 -99.762 332.818C-93.7473 337.793 -88.6001 340.702 -86.089 343.286L-86.2628 343.175ZM-84.9329 337.933C-85.5499 338.846 -89.5756 335.793 -90.2945 334.658C-89.3298 333.967 -87.4095 334.806 -85.0159 336.437C-85.2108 336.954 -85.5572 337.39 -84.7591 338.044L-84.9329 337.933ZM-91.1173 332.656C-92.3621 333.548 -93.9837 330.562 -97.2188 328.875C-96.6586 328.473 -97.6664 327.593 -97.111 327.053C-94.9026 328.786 -92.8399 330.697 -90.9436 332.767L-91.1173 332.656ZM1.99022 172.081C-0.268244 171.254 -2.33618 169.978 -4.08888 168.331C-2.26045 167.727 -0.999969 170.406 2.16405 172.192L1.99022 172.081ZM-104.206 336.805C-104.779 337.451 -107.388 334.796 -108.805 334.068C-106.783 334.457 -108.535 333.262 -110.59 331.906C-108.851 331.178 -106.225 335.236 -104.206 336.805ZM-104.799 329.405L-105.456 330.395L-109.102 327.87C-108.646 326.601 -106.202 328.762 -104.705 329.338L-104.799 329.405ZM-4.99639 166.342C-7.04358 165.921 -8.94898 164.983 -10.5304 163.615C-9.45738 163.593 -8.39461 163.83 -7.43157 164.304C-6.46853 164.779 -5.63339 165.478 -4.99639 166.342ZM-10.6124 169.613C-11.2037 170.037 -13.7465 167.146 -14.6826 166.497C-12.9211 165.8 -11.1933 168.474 -10.5231 169.737L-10.6124 169.613ZM-18.2439 166.457C-18.8656 167.233 -21.5048 165.259 -23.7645 163.815C-23.2151 162.478 -19.3016 165.047 -18.2439 166.457V166.457ZM-26.1402 159.909C-25.213 160.611 -25.7385 160.469 -26.4203 160.109C-27.2916 160.734 -23.2861 162.577 -24.6917 163.113C-26.6443 161.637 -26.9008 162.528 -29.1212 160.678C-29.3364 159.948 -29.7927 159.311 -30.4157 158.872C-29.7581 158.213 -26.7397 160.715 -26.1402 159.909V159.909ZM-130.502 320.16C-130.391 319.656 -131.679 318.977 -132.508 318.346C-132.853 317.273 -129.628 318.685 -131.714 317.022C-130.664 316.976 -129.482 320.136 -129.013 321.119C-131.736 319.489 -131.382 320.838 -133.692 318.534C-133.048 318.119 -131.652 319.475 -130.502 320.16V320.16ZM-28.5311 148.095C-29.0095 149.333 -34.1431 146.508 -32.7921 145.304C-31.1349 145.809 -29.6563 146.777 -28.5311 148.095ZM-33.6023 154.558C-33.8223 155.894 -36.3857 153.96 -37.119 154.58C-38.1402 153.615 -38.3464 152.867 -38.0318 152.123C-36.4309 152.684 -34.934 153.507 -33.6023 154.558V154.558ZM-141.536 309.167C-142.088 309.186 -142.64 309.204 -142.888 309.712C-143.655 309.037 -144.427 307.893 -143.247 308.555C-143.648 307.995 -144.732 307.074 -144.123 306.544C-143.632 307.229 -143.141 307.914 -142.643 307.557C-141.89 308.148 -142.503 308.541 -141.536 309.167V309.167ZM-147.638 307.225C-147.343 305.6 -147.455 305.444 -145.514 305.326C-144.693 306.669 -144.305 308.984 -147.545 307.158L-147.638 307.225ZM-53.9179 136.596C-54.3224 136.886 -54.0723 137.366 -53.4392 137.855C-55.7951 137.329 -54.6668 136.143 -58.6939 134.598C-58.0716 134.152 -59.0386 133.526 -59.9882 132.793C-57.8156 132.932 -57.2403 135.772 -53.8246 136.529L-53.9179 136.596ZM-153.774 287.82C-160.406 285.928 -173.8 277.098 -179.542 274.803C-176.081 273.784 -161.613 283.258 -153.681 287.753L-153.774 287.82ZM-163.341 285.25L-163.891 286.257C-165.478 285.497 -166.933 284.487 -168.201 283.266C-167.576 282.299 -165.311 283.881 -163.315 285.09L-163.341 285.25ZM-169.141 283.138L-169.722 284.168C-171.073 283.203 -172.851 282.168 -172.234 281.254L-169.141 283.138ZM-175.883 286.415C-176.257 286.683 -176.752 286.189 -176.632 285.962C-180.073 286.024 -176.705 284.742 -179.254 283.552C-178.787 283.218 -177.218 284.355 -176.082 284.955C-176.379 285.263 -176.726 285.699 -175.857 286.255L-175.883 286.415ZM-186.227 271.063C-186.995 272.226 -190.575 269.466 -192.642 268.685C-190.917 267.543 -188.944 270.23 -186.2 270.903L-186.227 271.063ZM-133.208 76.4387C-135.815 76.0631 -138.28 75.0221 -140.368 73.4159C-139.461 72.5777 -135.4 75.4176 -133.182 76.2785L-133.208 76.4387ZM-286.458 219.74C-291.897 215.437 -287.264 214.803 -278.595 218.158C-279.109 217.442 -280.881 216.874 -282.258 216.07C-282.292 214.775 -278.691 216.907 -278.132 216.176C-277.16 216.611 -277.796 217.302 -277.839 217.899C-270.357 219.795 -269.742 220.061 -261.631 222.638C-261.093 224.373 -257.786 224.124 -256.834 226.176C-254.63 226.623 -258.85 224.415 -256.312 224.67C-253.05 226.711 -249.567 228.373 -245.93 229.625C-245.402 228.587 -251.075 228.034 -249.336 226.976C-246.473 228.696 -243.316 229.869 -240.026 230.437C-240.054 230.821 -240.219 231.181 -240.49 231.454C-240.762 231.726 -241.122 231.892 -241.505 231.922C-239.549 232.876 -238.798 232.479 -238.653 231.433C-237.49 231.671 -236.394 232.164 -235.443 232.877C-234.493 233.589 -233.712 234.503 -233.156 235.553C-238.283 236.352 -250.826 227.855 -256.595 227.889C-265.091 223.921 -273.833 220.505 -282.767 217.66C-282.859 218.386 -280.277 218.704 -280 219.353C-280.461 220.485 -284.764 218.62 -284.285 217.711C-286.534 217.532 -286.769 217.795 -286.432 219.58L-286.458 219.74ZM-166.711 50.7245C-169.07 50.8066 -171.393 50.1241 -173.334 48.7786C-171.003 48.8897 -168.732 49.5568 -166.711 50.7245ZM-168.949 46.8138C-168.634 48.5676 -174.541 46.1086 -173.172 45.1273L-168.949 46.8138ZM-178.926 73.9021C-181.059 73.6867 -190.552 70.1682 -187.839 69.0249C-185.03 70.9532 -182.037 72.5974 -178.904 73.9333L-178.926 73.9021ZM-174.412 48.3258C-181.14 47.68 -190.085 41.8366 -196.276 40.4287C-194.196 40.6353 -192.848 40.2817 -192.271 39.4438C-186.725 41.5961 -183.211 44.5925 -178.37 45.6949C-177.59 46.4553 -177.984 47.3509 -174.39 48.3569L-174.412 48.3258ZM-245.699 224.558C-246.54 225.16 -250.078 222.983 -251.913 222.46C-249.912 221.309 -248.796 223.195 -245.677 224.589L-245.699 224.558ZM-188.053 59.3277C-188.988 59.3378 -189.486 59.6947 -189.578 60.4206C-192.949 59.3964 -191.255 58.6061 -194.627 57.582C-194.179 56.6953 -190.81 58.2404 -188.031 59.3589L-188.053 59.3277ZM-192.318 61.3947L-192.717 62.4815C-197.461 61.0568 -202.027 59.0954 -206.327 56.6352C-201.63 57.2748 -197.653 60.1282 -192.296 61.4258L-192.318 61.3947ZM-206.442 57.0005C-215.741 54.8041 -222.463 50.2893 -233.734 47.904C-232.351 47.3367 -233.13 47.2352 -232.024 46.0183C-227.22 48.8438 -216.835 52.949 -214.518 52.0421C-212.642 52.8189 -212.245 53.5708 -212.844 54.3775C-209.62 55.1302 -211.478 54.2466 -211.319 53.2847C-208.174 54.5184 -209.173 55.753 -206.42 57.0317L-206.442 57.0005ZM-260.733 215.018C-261.206 216.724 -262.987 214.042 -265.516 213.733C-264.066 213.259 -262.582 214.081 -260.711 215.049L-260.733 215.018ZM-265.209 201.872C-270.686 200.881 -276.078 199.466 -281.337 197.64C-287.149 196.103 -292.655 193.875 -297.1 192.865C-299.166 192.743 -296.825 194.695 -295.053 194.933C-296.173 195.736 -298.389 194.025 -299.898 193.693C-299.837 192.989 -298.871 192.957 -298.797 192.338C-298.722 191.719 -302.65 191.234 -304.253 190.64C-292.615 189.462 -282.143 195.201 -265.729 200.358C-265.834 201 -266.083 201.507 -265.187 201.902L-265.209 201.872ZM-273.471 222.876C-274.406 223.215 -276.776 222.274 -278.214 222.174C-277.917 221.537 -278.95 221.146 -278.506 220.451C-275.371 221.079 -276.553 222.256 -273.449 222.907L-273.471 222.876ZM-235.457 45.3681C-235.94 46.798 -240.697 45.3528 -244.834 44.3118C-244.827 43.5994 -243.255 43.8868 -243.278 43.1967C-241.036 44.7477 -238.896 44.2506 -235.435 45.3993L-235.457 45.3681ZM-288.834 213.665C-289.326 214.49 -290.389 214.781 -290.302 216.085C-294.356 214.701 -295.948 213.203 -300.359 211.321C-297.476 210.15 -293.638 213.008 -288.834 213.665ZM-313.582 214.624C-312.353 214.827 -311.12 215.168 -309.877 215.456C-322.193 213.914 -338.28 211.775 -351.814 209.125C-352.566 209.193 -352.32 209.865 -353.246 209.822C-354.669 209.588 -356.071 209.237 -357.437 208.772C-357.243 207.596 -353.881 208.344 -351.744 208.368C-351.678 207.803 -351.59 207.268 -352.392 207.136C-345.417 206.615 -333.255 209.257 -321.775 209.042C-319.704 209.66 -317.791 210.715 -316.164 212.138C-313.961 212.256 -316.412 210.807 -315.848 210.214C-313.889 210.318 -312.692 212.383 -311.447 211.491C-309.335 212.334 -310.844 212.332 -310.985 213.187C-307.906 213.279 -304.849 213.747 -301.884 214.582C-300.826 213.494 -304.081 213.423 -305.479 212.917C-302.05 212.555 -298.603 213.427 -295.757 215.375C-295.553 216.974 -299.849 216.894 -295.649 218.22C-299.21 218.51 -307.12 214.045 -309.076 215.259C-305.741 216.415 -302.349 217.397 -298.912 218.202C-295.998 218.747 -293.278 220.048 -291.026 221.977C-299.293 221.351 -305.332 217.525 -313.962 216.263L-313.582 214.624ZM-289.179 205.429C-289.506 206.418 -291.398 206.736 -292.57 205.691C-292.595 204.672 -290.759 205.195 -289.179 205.429ZM-297.463 205.569C-297.183 205.368 -296.577 205.358 -296.56 204.922C-302.92 203.281 -309.415 202.225 -315.966 201.768C-317.15 199.459 -313.335 199.458 -308.629 200.044C-303.923 200.63 -298.306 202.355 -296.022 202.65C-292.977 204.664 -292.783 206.315 -297.427 205.684L-297.463 205.569ZM-303.299 210.176C-304.005 210.965 -306.005 210.607 -306.711 211.396C-307.484 209.923 -313.12 209.814 -313.149 208.327C-310.114 210.064 -307.032 208.515 -303.33 210.198L-303.299 210.176ZM-329.797 187.925C-329.766 187.574 -330.715 187.499 -331.338 187.286C-331.09 186.778 -328.939 187.546 -328.864 186.927C-329.623 185.868 -333.928 185.843 -335.882 185.547C-332.391 183.846 -324.303 186.061 -321.353 185.314C-321.154 185.451 -320.997 185.642 -320.9 185.863C-320.802 186.085 -320.769 186.329 -320.802 186.569C-320.836 186.808 -320.936 187.033 -321.091 187.219C-321.245 187.405 -321.449 187.544 -321.678 187.621C-321.172 189.05 -319.915 187.912 -318.604 188.953C-316.32 188.919 -320.997 187.651 -319.912 186.733C-313.763 187.887 -312.524 188.695 -309.515 188.095C-307.065 189.214 -309.773 188.656 -304.825 189.447C-304.945 192.172 -309.968 188.844 -312.273 189.506C-309.95 191.564 -301.672 190.298 -302.188 192.93C-312.04 190.093 -324.9 190.684 -335.351 186.485C-333.483 185.806 -332.833 187.698 -329.921 188.015L-329.797 187.925ZM-312.678 205.633C-310.01 206.266 -314.831 206.704 -312.185 207.306C-313.149 208.327 -314.684 206.646 -315.129 206.353C-315.225 205.431 -312.908 206.363 -312.616 205.588L-312.678 205.633ZM-315.961 206.572C-321.803 206.045 -334.165 203.782 -330.802 202.361C-327.397 204.681 -321.874 203.646 -315.993 206.595L-315.961 206.572ZM-324.683 173.372C-323.396 173.723 -325.492 173.952 -324.014 174.307C-325.974 175.712 -331.098 173.163 -333.881 172.895C-332.759 170.912 -326.542 174.328 -324.715 173.395L-324.683 173.372ZM-332.939 172.172L-337.004 171.692C-336.537 171.358 -336.039 171.001 -336.934 170.935C-336.708 170.396 -334.486 171.065 -334.411 170.447C-332.937 170.663 -332.513 171.254 -332.97 172.194L-332.939 172.172ZM-333.248 203.549C-338.264 203.845 -348.743 201.646 -357.361 201.977C-354.303 200.751 -350.969 200.382 -347.716 200.91C-343.93 201.529 -340.113 201.94 -336.282 202.142C-337.023 203.474 -334.598 203.244 -333.279 203.571L-333.248 203.549ZM-357.365 167.337C-359.263 166.529 -364.482 167.725 -365.634 166.052C-367.494 166.649 -369.452 166.884 -371.402 166.745C-371.96 165.967 -373.843 165.573 -372.318 164.81C-370.4 164.66 -371.447 166.024 -369.792 165.969C-368.136 165.913 -367.87 164.969 -369.821 164.811C-363.165 164.033 -356.43 164.259 -349.841 165.48C-351.746 165.714 -353.6 166.807 -355.703 165.91C-355.823 168.306 -351.876 167.174 -349.986 166.526C-349.695 166.931 -346.897 168.272 -348.42 168.185C-348.346 169.405 -352.498 167.95 -355.016 168.576C-352.806 169.82 -345.578 168.929 -344.344 169.6C-344.947 168.759 -345.906 167.42 -342.598 167.83C-343.23 170.498 -339.19 171.468 -334.71 172.263C-335.012 172.371 -335.269 172.576 -335.442 172.845C-335.615 173.114 -335.695 173.433 -335.669 173.752C-344.337 171.056 -362.745 172.843 -374.512 172.132C-374.642 171.425 -373.454 171.374 -373.758 170.555C-376.353 170.812 -376.542 172.126 -379.341 172.295L-379.447 170.767C-380.902 170.774 -381.128 171.313 -382.682 171.248C-384.236 171.183 -381.653 171.83 -383.374 172.451C-384.728 172.47 -386.08 172.558 -387.425 172.715C-387.323 172.265 -387.671 172.043 -388.267 171.999C-387.575 171.243 -386.726 170.648 -385.779 170.254C-384.833 169.861 -383.812 169.679 -382.787 169.721C-383.091 169.614 -383.355 169.416 -383.542 169.154C-383.73 168.893 -383.833 168.579 -383.836 168.257C-381.867 168.967 -379.275 167.392 -377.341 168.316C-376.936 168.256 -376.563 168.063 -376.28 167.766C-375.998 167.47 -375.822 167.087 -375.782 166.68C-368.676 167.196 -364.825 167.641 -357.396 167.359L-357.365 167.337ZM-360.912 205.041C-361.506 203.817 -359.783 203.855 -359.446 203.142C-355.394 203.867 -354.393 203.621 -350.083 204.114C-352.075 203.044 -349.787 202.818 -346.875 203.135C-344.494 203.309 -342.174 203.973 -340.06 205.085C-346.963 205.838 -356.156 203.33 -360.943 205.063L-360.912 205.041ZM-358.09 206.743C-358.285 207.589 -361.202 206.804 -361.634 206.596C-361.085 205.259 -359.244 206.25 -358.122 206.765L-358.09 206.743ZM-362.349 203.102C-361.843 204.53 -363.481 204.808 -365.951 204.647C-366.488 203.57 -364.645 203.71 -364.517 203.1C-370.217 201.718 -376.139 203.182 -378.366 200.535C-374.681 200.719 -370.993 200.261 -367.467 199.181C-366.487 199.563 -366.018 200.217 -364.535 200.379C-365.687 201.205 -366.301 200.938 -368.158 200.714C-367.523 202.191 -365.572 203.008 -362.38 203.124L-362.349 203.102ZM-385.272 203.977C-385.729 204.917 -389.5 204.651 -388.901 203.514C-388.014 203.106 -387.053 202.882 -386.076 202.856C-386.208 203.328 -386.154 203.996 -385.303 204L-385.272 203.977ZM-437.755 5.02819C-440.649 7.10234 -444.599 5.92755 -449.797 6.82478C-450.534 5.79721 -442.459 5.76005 -443.32 4.82169C-439.826 4.10922 -441.959 6.06218 -437.786 5.05051L-437.755 5.02819ZM-478.736 18.5633C-486.068 21.084 -493.887 22.0693 -500.673 25.9429C-505.233 27.4671 -503.942 25.1278 -509.128 27.2896C-510.655 27.0645 -505.612 24.7693 -509.741 25.8432C-504.004 22.8717 -497.984 20.4834 -491.77 18.7139C-489.9 18.6937 -489.605 19.5659 -491.112 20.5519C-487.072 19.4943 -482.937 18.8356 -478.767 18.5856L-478.736 18.5633ZM-437.399 204.196C-437.18 205.028 -440.18 205.246 -441.287 205.804C-441.641 204.785 -438.428 203.944 -437.399 204.196ZM-437.687 211.944C-437.677 212.879 -440.882 213.008 -442.055 213.802C-442.522 211.638 -440.053 212.98 -437.687 211.944ZM-463.162 217.146C-461.142 216.876 -463.84 219.093 -465.508 219.723C-466.944 218.442 -462.885 217.796 -463.118 217.208L-463.162 217.146ZM-581.406 88.7072C-584.672 91.7079 -589.766 95.3121 -586.864 95.0234C-594.856 101.223 -600.859 100.34 -595.049 93.725C-590.015 91.1538 -583.075 86.5098 -581.406 88.7072ZM-527.154 212.247C-526.048 212.869 -527.497 214.331 -529.239 215.909C-529.663 215.318 -530.543 215.996 -530.936 215.382C-529.921 214.072 -528.668 212.966 -527.243 212.122L-527.154 212.247ZM-672.92 195.774C-670.779 195.607 -673.8 201.118 -674.573 203.982C-672.015 205.778 -668.951 201.509 -669.817 207.596C-671.224 210.42 -672.967 213.062 -675.01 215.466C-678.585 215.341 -678.457 214.731 -679.626 210.668C-678.373 207.224 -674.69 201.191 -676.795 201.474C-675.756 200.164 -674.368 197.237 -672.92 195.774ZM-607.124 236.38C-606.566 237.159 -609.26 241.352 -609.838 241.86C-609.845 240.454 -609.466 239.074 -608.741 237.87C-608.419 238.581 -607.838 237.552 -607.248 236.469L-607.124 236.38ZM-680.07 220.695C-680.983 222.905 -681.646 223.097 -682.585 225.467C-684.062 226.101 -682.762 223.379 -683.924 223.599C-682.435 222.39 -681.033 219.877 -680.07 220.695ZM-563.453 271.681C-561.846 271.754 -564.893 277.426 -565.649 275.847C-565.581 274.101 -564.096 273.084 -563.239 271.716L-563.453 271.681ZM-579.722 300.639L-580.124 302.247C-581.317 301.83 -582.364 303.852 -581.574 300.222C-580.335 301.031 -579.974 299.17 -579.508 300.674L-579.722 300.639Z" fill="#33BDB0"/>
</svg>
