<svg width="820" height="478" viewBox="0 0 820 478" fill="none" xmlns="http://www.w3.org/2000/svg">
<rect width="820" height="478" fill="black"/>
<g clip-path="url(#clip0_778_3261)">
<path d="M278.897 231.836C283.23 231.836 286.833 234.1 288.245 237.422H290.615C289.2 232.029 284.642 228.273 278.894 228.273C271.873 228.273 266.582 233.81 266.582 241.131C266.582 248.451 271.873 253.988 278.894 253.988C284.642 253.988 289.2 250.232 290.615 244.839H288.245C286.83 248.161 283.23 250.426 278.897 250.426C273.15 250.426 268.817 246.43 268.817 241.134C268.817 235.837 273.15 231.841 278.897 231.841V231.836Z" fill="white"/>
<path d="M329.66 238.769C324.37 237.951 321.634 236.794 321.634 234.773C321.634 232.605 324.642 231.114 328.975 231.114C333.307 231.114 336.453 232.798 336.453 235.256H338.689C338.689 230.777 334.722 227.648 328.975 227.648C323.227 227.648 319.398 230.344 319.398 234.679C319.398 238.531 322.773 240.939 328.521 241.853C333.993 242.72 336.867 243.828 336.867 245.995C336.867 248.307 333.72 249.894 329.022 249.894C324.323 249.894 321.133 248.064 321.133 245.465H318.988C318.988 250.088 323.048 253.363 329.022 253.363C334.995 253.363 339.099 250.571 339.099 246.042C339.099 242.047 335.496 239.735 329.66 238.771V238.769Z" fill="white"/>
<path d="M588.563 238.769C583.272 237.951 580.536 236.794 580.536 234.773C580.536 232.605 583.544 231.114 587.877 231.114C592.21 231.114 595.356 232.798 595.356 235.256H597.591C597.591 230.777 593.625 227.648 587.877 227.648C582.129 227.648 578.301 230.344 578.301 234.679C578.301 238.531 581.675 240.939 587.423 241.853C592.895 242.72 595.769 243.828 595.769 245.995C595.769 248.307 592.623 249.894 587.924 249.894C583.225 249.894 580.035 248.064 580.035 245.465H577.891C577.891 250.088 581.951 253.363 587.924 253.363C593.897 253.363 598.001 250.571 598.001 246.042C598.001 242.047 594.398 239.735 588.563 238.771V238.769Z" fill="white"/>
<path d="M311.885 242.669C311.885 244.69 311.209 246.433 309.855 247.895C308.502 249.357 306.87 250.086 304.954 250.086C303.038 250.086 301.389 249.357 300.006 247.895C298.624 246.433 297.932 244.693 297.932 242.669V229.234H295.105V242.669C295.105 245.557 296.072 248.006 298.003 250.013C299.933 252.019 302.25 253.021 304.957 253.021C306.357 253.021 307.64 252.758 308.809 252.227C309.981 251.697 311.006 250.982 311.888 250.086V252.447H314.853V229.234H311.888V242.669H311.885Z" fill="white"/>
<path d="M371.8 228.562C368.548 228.562 365.78 229.766 363.501 232.174C361.222 234.582 360.082 237.471 360.082 240.843C360.082 244.214 361.23 247.047 363.524 249.438C365.821 251.828 368.577 253.026 371.8 253.026C375.022 253.026 377.705 251.831 379.941 249.438C382.176 247.047 383.292 244.182 383.292 240.843C383.292 237.503 382.167 234.582 379.917 232.174C377.667 229.766 374.961 228.562 371.8 228.562ZM377.91 247.343C376.208 249.174 374.17 250.088 371.8 250.088C369.43 250.088 367.3 249.174 365.598 247.343C363.896 245.512 363.044 243.347 363.044 240.843C363.044 238.338 363.902 236.147 365.622 234.366C367.338 232.585 369.401 231.694 371.8 231.694C374.199 231.694 376.208 232.593 377.91 234.389C379.612 236.188 380.465 238.338 380.465 240.843C380.465 243.347 379.612 245.515 377.91 247.343Z" fill="white"/>
<path d="M437.151 228.562C433.9 228.562 431.131 229.766 428.852 232.174C426.573 234.582 425.434 237.471 425.434 240.843C425.434 244.214 426.582 247.047 428.876 249.438C431.172 251.828 433.929 253.026 437.151 253.026C439.372 253.026 441.384 252.431 443.195 251.245C445.005 250.059 446.379 248.532 447.322 246.669H443.857C443.036 247.697 442.055 248.524 440.916 249.15C439.776 249.777 438.522 250.091 437.154 250.091C434.966 250.091 433.05 249.353 431.41 247.876C429.769 246.4 428.779 244.554 428.445 242.34H448.602L448.649 240.848C448.649 237.477 447.51 234.588 445.231 232.18C442.952 229.772 440.259 228.568 437.157 228.568L437.151 228.562ZM428.442 239.349C428.776 237.166 429.772 235.344 431.43 233.882C433.088 232.421 434.995 231.691 437.154 231.691C439.313 231.691 441.068 232.421 442.697 233.882C444.323 235.341 445.304 237.163 445.638 239.349H428.445H428.442Z" fill="white"/>
<path d="M473.097 232.7C471.91 231.288 470.557 230.245 469.037 229.571C467.516 228.898 465.981 228.561 464.432 228.561C461.18 228.561 458.412 229.765 456.132 232.173C453.853 234.581 452.711 237.469 452.711 240.841C452.711 244.213 453.859 247.045 456.153 249.436C458.45 251.826 461.206 253.024 464.429 253.024C466.011 253.024 467.56 252.702 469.081 252.061C470.601 251.419 471.94 250.391 473.094 248.979V252.447H475.921V221H473.094V232.7H473.097ZM470.542 247.338C468.84 249.169 466.801 250.083 464.432 250.083C462.062 250.083 459.932 249.169 458.23 247.338C456.528 245.508 455.676 243.343 455.676 240.838C455.676 238.333 456.534 236.142 458.253 234.361C459.97 232.58 462.029 231.689 464.432 231.689C466.834 231.689 468.84 232.589 470.542 234.385C472.244 236.183 473.097 238.333 473.097 240.838C473.097 243.343 472.244 245.51 470.542 247.338Z" fill="white"/>
<path d="M483.858 229.234H480.984V252.444H483.858V229.234Z" fill="white"/>
<path d="M509.671 232.702C508.485 231.29 507.131 230.247 505.611 229.573C504.09 228.899 502.555 228.562 501.006 228.562C497.754 228.562 494.986 229.766 492.707 232.174C490.428 234.582 489.285 237.471 489.285 240.843C489.285 244.214 490.433 247.047 492.727 249.438C495.024 251.828 497.78 253.026 501.003 253.026C502.585 253.026 504.134 252.704 505.655 252.062C507.175 251.421 508.514 250.393 509.668 248.981V252.449H512.495V229.236H509.668V232.702H509.671ZM507.117 247.34C505.415 249.171 503.376 250.085 501.006 250.085C498.636 250.085 496.506 249.171 494.804 247.34C493.102 245.509 492.25 243.344 492.25 240.84C492.25 238.335 493.108 236.144 494.828 234.363C496.544 232.582 498.604 231.691 501.006 231.691C503.408 231.691 505.415 232.59 507.117 234.386C508.819 236.185 509.671 238.335 509.671 240.84C509.671 243.344 508.819 245.512 507.117 247.34Z" fill="white"/>
<path d="M519.979 221H517.105V252.444H519.979V221Z" fill="white"/>
<path d="M545.339 232.702C544.153 231.29 542.799 230.247 541.279 229.573C539.758 228.899 538.223 228.562 536.674 228.562C533.422 228.562 530.654 229.766 528.375 232.174C526.096 234.582 524.953 237.471 524.953 240.843C524.953 244.214 526.101 247.047 528.395 249.438C530.692 251.828 533.448 253.026 536.671 253.026C538.253 253.026 539.802 252.704 541.323 252.062C542.843 251.421 544.182 250.393 545.336 248.981V252.449H548.163V229.236H545.336V232.702H545.339ZM542.785 247.34C541.083 249.171 539.044 250.085 536.674 250.085C534.304 250.085 532.174 249.171 530.472 247.34C528.77 245.509 527.918 243.344 527.918 240.84C527.918 238.335 528.776 236.144 530.496 234.363C532.212 232.582 534.272 231.691 536.674 231.691C539.076 231.691 541.083 232.59 542.785 234.386C544.487 236.185 545.339 238.335 545.339 240.84C545.339 243.344 544.487 245.512 542.785 247.34Z" fill="white"/>
<path d="M564.767 228.561C563.246 228.561 561.702 228.915 560.138 229.621C558.574 230.327 557.197 231.356 556.01 232.703V221H553.137V252.444H556.01V248.976C557.197 250.356 558.609 251.399 560.252 252.105C561.682 252.714 563.188 253.019 564.767 253.019C568.018 253.019 570.772 251.832 573.022 249.456C575.271 247.081 576.396 244.207 576.396 240.838C576.396 237.469 575.257 234.578 572.975 232.17C570.696 229.762 567.96 228.558 564.767 228.558V228.561ZM570.921 247.341C569.187 249.172 567.136 250.086 564.767 250.086C562.397 250.086 560.343 249.172 558.609 247.341C556.875 245.51 556.01 243.346 556.01 240.841C556.01 238.336 556.878 236.186 558.609 234.387C560.343 232.589 562.394 231.692 564.767 231.692C567.139 231.692 569.19 232.592 570.921 234.387C572.655 236.186 573.52 238.336 573.52 240.841C573.52 243.346 572.653 245.513 570.921 247.341Z" fill="white"/>
<path d="M341.129 232.016H346.352V246.886C346.352 250.964 348.397 253.026 352.305 253.026H355.984V249.525H352.442C349.9 249.525 348.537 248.424 348.537 246.265V232.016H356.441V228.562H341.132V232.016H341.129Z" fill="white"/>
<path d="M405.673 234.658C405.363 233.946 405.09 233.421 404.868 233.032C404.868 233.032 404.865 233.035 404.862 233.038C404.665 232.704 404.455 232.387 404.229 232.086L404.223 232.08C403.541 231.177 402.717 230.436 401.762 229.859C400.365 228.992 398.83 228.559 397.157 228.559C395.912 228.559 394.711 228.881 393.554 229.522C392.552 230.067 391.668 230.791 390.909 231.69V229.235H388.035V252.445H390.909V238.191C390.909 236.392 391.524 234.86 392.757 233.591C393.988 232.323 395.455 231.69 397.157 231.69C398.859 231.69 400.365 232.332 401.581 233.615C402.797 234.898 403.406 236.424 403.406 238.191V252.445H406.28V238.191C406.28 238.006 406.315 237.836 406.326 237.657H406.309C406.309 237.657 406.18 235.812 405.676 234.658H405.673Z" fill="white"/>
<path d="M412.526 228.562C410.885 228.562 409.365 228.995 407.965 229.862C407.317 230.264 406.728 230.744 406.195 231.303C406.561 231.696 407.048 232.332 407.464 233.293C407.569 233.533 407.663 233.791 407.754 234.054C407.88 233.902 407.982 233.741 408.126 233.594C409.356 232.326 410.824 231.693 412.526 231.693C414.228 231.693 415.704 232.335 416.949 233.618C418.194 234.901 418.818 236.427 418.818 238.193V252.448H421.736V238.191C421.736 235.528 420.831 233.254 419.023 231.377C417.213 229.499 415.048 228.559 412.526 228.559V228.562Z" fill="white"/>
<path d="M482.423 226.125C483.579 226.125 484.517 225.451 484.517 224.619C484.517 223.787 483.579 223.113 482.423 223.113C481.266 223.113 480.328 223.787 480.328 224.619C480.328 225.451 481.266 226.125 482.423 226.125Z" fill="white"/>
<path d="M238.326 256.512C238.218 256.512 238.112 256.5 238.007 256.474L225.46 253.489C224.558 253.424 223.738 252.914 223.281 252.126L222.373 250.556C221.886 249.713 221.886 248.664 222.373 247.82L235.441 225.187C235.687 224.76 236.144 224.496 236.639 224.496H240.013C240.509 224.496 240.966 224.76 241.212 225.187L254.28 247.823C254.766 248.667 254.766 249.715 254.28 250.559L253.372 252.132C252.918 252.92 252.094 253.43 251.192 253.494L238.645 256.48C238.54 256.503 238.432 256.518 238.326 256.518V256.512ZM225.753 250.744C225.826 250.744 225.891 250.744 225.97 250.764L238.326 253.705L250.682 250.764C250.788 250.741 250.896 250.726 251.002 250.726L251.881 249.171L239.214 227.264H237.436L224.769 249.206L225.677 250.744C225.703 250.744 225.73 250.744 225.753 250.744Z" fill="#33D176"/>
<path d="M248.536 225.044H247.379V224.496H250.341V225.044H249.183V227.985H248.536V225.044Z" fill="#33D176"/>
<path d="M254.037 227.985L254.031 225.671L252.886 227.587H252.596L251.45 225.703V227.988H250.832V224.496H251.365L252.751 226.81L254.113 224.496H254.646L254.652 227.985H254.04H254.037Z" fill="#33D176"/>
</g>
<defs>
<clipPath id="clip0_778_3261">
<rect width="376" height="35.5104" fill="white" transform="translate(222 221)"/>
</clipPath>
</defs>
</svg>
