<svg width="130" height="130" viewBox="0 0 130 130" fill="none" xmlns="http://www.w3.org/2000/svg">
<path d="M34.1641 18.2031H97.1328C106.68 18.2031 114.398 25.9087 114.398 35.4392V95.867C114.398 105.398 106.68 113.103 97.1328 113.103H34.1641C24.6172 113.103 16.8984 105.398 16.8984 95.867V35.4392C16.8984 25.9087 24.6172 18.2031 34.1641 18.2031Z" fill="#330000"/>
<path d="M64.1476 75.1472H49.0351L45.9476 84.6778C45.8664 85.0428 45.5414 85.2861 45.1758 85.2456H37.5383C37.0914 85.2456 36.9695 85.0022 37.0914 84.5156L50.1726 46.9206C50.2945 46.515 50.4164 46.0689 50.5789 45.5822C50.7414 44.7306 50.8226 43.8383 50.8226 42.9461C50.782 42.7433 50.9445 42.5406 51.1476 42.5C51.1883 42.5 51.2289 42.5 51.2695 42.5H61.6695C61.9945 42.5 62.157 42.6217 62.1976 42.8244L77.0258 84.5967C77.1476 85.0428 77.0258 85.2456 76.6195 85.2456H68.1289C67.8445 85.2861 67.5601 85.0833 67.4789 84.7994L64.1476 75.1472ZM51.3914 66.9144H61.7101C61.4664 66.0628 61.1414 65.0489 60.7758 63.9944C60.4101 62.8994 60.0445 61.7233 59.6789 60.5067C59.2726 59.2494 58.907 58.0328 58.5008 56.7756C58.0945 55.5183 57.7289 54.3422 57.4039 53.1661C57.0789 52.0306 56.7945 50.9761 56.5101 50.0028H56.4289C56.0633 51.7467 55.6164 53.4906 55.0476 55.2344C54.4383 57.1811 53.8289 59.2089 53.1789 61.2367C52.6101 63.305 52.0008 65.2111 51.3914 66.9144Z" fill="#FF9A00"/>
<path d="M85.882 49.4333C84.5414 49.4739 83.2414 48.9467 82.2664 48.0139C81.332 47 80.8445 45.6617 80.8852 44.2828C80.8445 42.9039 81.3727 41.6061 82.3477 40.6734C83.3227 39.7406 84.6227 39.2539 85.9633 39.2539C87.5477 39.2539 88.7664 39.7406 89.6602 40.6734C90.5539 41.6467 91.0414 42.9445 91.0008 44.2828C91.0414 45.6617 90.5539 47 89.5789 48.0139C88.6445 48.9872 87.2633 49.5145 85.882 49.4333ZM81.332 84.6356V53.4078C81.332 53.0022 81.4945 52.84 81.8602 52.84H89.9039C90.2695 52.84 90.432 53.0428 90.432 53.4078V84.6356C90.432 85.0817 90.2695 85.2845 89.9039 85.2845H81.9414C81.5352 85.2845 81.332 85.0411 81.332 84.6356Z" fill="#FF9A00"/>
</svg>
