<svg width="130" height="130" viewBox="0 0 130 130" fill="none" xmlns="http://www.w3.org/2000/svg">
<path d="M67.2734 47.8833H47.3401C37.7073 47.8833 29.8984 40.0745 29.8984 30.4417C29.8984 20.8089 37.7073 13 47.3401 13H67.2734V47.8833Z" fill="#E64A19"/>
<path d="M64.7818 82.7661H47.3401C37.7073 82.7661 29.8984 74.9573 29.8984 65.3245C29.8984 55.6917 37.7073 47.8828 47.3401 47.8828H64.7818V82.7661Z" fill="#7C4DFF"/>
<path d="M47.3401 117.653C37.7073 117.653 29.8984 109.844 29.8984 100.211C29.8984 90.5784 37.7073 82.7695 47.3401 82.7695H64.7818V100.211C64.7818 109.844 56.9729 117.653 47.3401 117.653Z" fill="#66BB6A"/>
<path d="M82.2229 47.8833H64.7812V13H82.2229C91.8557 13 99.6646 20.8089 99.6646 30.4417C99.6646 40.0745 91.8557 47.8833 82.2229 47.8833Z" fill="#FF7043"/>
<path d="M82.2229 82.7661C91.8557 82.7661 99.6646 74.9572 99.6646 65.3245C99.6646 55.6917 91.8557 47.8828 82.2229 47.8828C72.5902 47.8828 64.7812 55.6917 64.7812 65.3245C64.7812 74.9572 72.5902 82.7661 82.2229 82.7661Z" fill="#29B6F6"/>
</svg>
