<svg width="130" height="130" viewBox="0 0 130 130" fill="none" xmlns="http://www.w3.org/2000/svg">
<g clip-path="url(#clip0_257_503)">
<path d="M34.1641 18.2031H97.1328C106.68 18.2031 114.398 25.9087 114.398 35.4392V95.867C114.398 105.398 106.68 113.103 97.1328 113.103H34.1641C24.6172 113.103 16.8984 105.398 16.8984 95.867V35.4392C16.8984 25.9087 24.6172 18.2031 34.1641 18.2031Z" fill="#001E36"/>
<path d="M38.832 84.7531V43.0215C38.832 42.7376 38.9539 42.5754 39.2383 42.5754C39.9289 42.5754 40.5789 42.5754 41.5133 42.5348C42.4883 42.4943 43.5039 42.4943 44.6008 42.4537C45.6977 42.4131 46.8758 42.4131 48.1352 42.3726C49.3945 42.332 50.6133 42.332 51.832 42.332C55.1633 42.332 57.9258 42.7376 60.2008 43.5893C62.232 44.2787 64.1008 45.4143 65.6445 46.9148C66.9445 48.2126 67.9602 49.7943 68.6102 51.5381C69.2195 53.2415 69.5445 54.9854 69.5445 56.8104C69.5445 60.2981 68.732 63.1776 67.107 65.4487C65.482 67.7198 63.207 69.4231 60.5664 70.3965C57.8039 71.4104 54.757 71.7754 51.4258 71.7754C50.4508 71.7754 49.8008 71.7754 49.3945 71.7348C48.9883 71.6943 48.4195 71.6943 47.6477 71.6943V84.7126C47.6883 84.9965 47.4852 85.2398 47.2008 85.2804C47.1602 85.2804 47.1195 85.2804 47.0383 85.2804H39.3195C38.9945 85.2804 38.832 85.1181 38.832 84.7531ZM47.6883 50.4026V64.0293C48.257 64.0698 48.7852 64.1104 49.2727 64.1104H51.4258C53.0102 64.1104 54.5945 63.867 56.0977 63.3804C57.3977 63.0154 58.5352 62.2448 59.4289 61.2309C60.282 60.217 60.6883 58.8381 60.6883 57.0537C60.7289 55.7965 60.4039 54.5393 59.7539 53.4443C59.0633 52.3898 58.0883 51.5787 56.9102 51.1326C55.407 50.5243 53.782 50.2809 52.1164 50.3215C51.0602 50.3215 50.1258 50.3215 49.3539 50.362C48.5414 50.3215 47.9727 50.362 47.6883 50.4026Z" fill="#31A8FF"/>
<path d="M94.895 61.5562C93.6763 60.9073 92.3763 60.4612 90.995 60.1773C89.4919 59.8528 87.9888 59.6501 86.445 59.6501C85.6325 59.6095 84.7794 59.7312 84.0075 59.934C83.4794 60.0556 83.0325 60.3395 82.7481 60.7451C82.545 61.0695 82.4231 61.4751 82.4231 61.8401C82.4231 62.2051 82.5856 62.5701 82.8294 62.8945C83.195 63.3406 83.6825 63.7056 84.2106 63.9895C85.145 64.4762 86.12 64.9223 87.095 65.3278C89.2888 66.0578 91.4013 67.0717 93.3513 68.2884C94.6919 69.1401 95.7888 70.2756 96.5606 71.6545C97.2106 72.9523 97.5356 74.3717 97.495 75.8317C97.5356 77.7379 96.9669 79.644 95.9106 81.2256C94.7731 82.8478 93.1888 84.1051 91.3606 84.8351C89.37 85.6867 86.9325 86.1328 84.0075 86.1328C82.1388 86.1328 80.3106 85.9706 78.4825 85.6056C77.0606 85.3623 75.6388 84.9162 74.3388 84.3078C74.0544 84.1456 73.8513 83.8617 73.8919 83.5373V76.4806C73.8919 76.359 73.9325 76.1967 74.0544 76.1156C74.1763 76.0345 74.2981 76.0751 74.42 76.1562C76.0044 77.089 77.67 77.7378 79.4575 78.1434C81.0013 78.549 82.6263 78.7517 84.2513 78.7517C85.795 78.7517 86.8919 78.549 87.6231 78.184C88.2731 77.9001 88.72 77.2106 88.72 76.4806C88.72 75.9128 88.395 75.3856 87.745 74.8584C87.095 74.3312 85.7544 73.7228 83.7638 72.9523C81.6919 72.2223 79.7825 71.249 77.995 70.0323C76.7356 69.1401 75.6794 67.964 74.9075 66.5851C74.2575 65.2873 73.9325 63.8678 73.9731 62.4484C73.9731 60.7045 74.4606 59.0417 75.3544 57.5412C76.37 55.919 77.8731 54.6212 79.62 53.8101C81.5294 52.8367 83.9263 52.3906 86.8106 52.3906C88.4763 52.3906 90.1825 52.5123 91.8481 52.7556C93.0669 52.9178 94.245 53.2423 95.3419 53.6884C95.5044 53.729 95.6669 53.8912 95.7481 54.0534C95.7888 54.2156 95.8294 54.3778 95.8294 54.5401V61.1506C95.8294 61.3128 95.7481 61.4751 95.6263 61.5562C95.2606 61.6373 95.0575 61.6373 94.895 61.5562Z" fill="#31A8FF"/>
</g>
<defs>
<clipPath id="clip0_257_503">
<rect width="97.5" height="94.9" fill="white" transform="translate(16.8984 18.1992)"/>
</clipPath>
</defs>
</svg>
