<svg width="130" height="130" viewBox="0 0 130 130" fill="none" xmlns="http://www.w3.org/2000/svg">
<path d="M1.30078 41.6067L12.5173 89.7016H16.7693C18.6405 89.7016 20.4552 89.0757 21.9102 87.9283C23.3651 86.7809 24.3724 85.1815 24.7636 83.3973L31.9352 50.5818C31.9767 50.3822 32.0876 50.2027 32.2491 50.0735C32.4105 49.9443 32.6128 49.8734 32.8217 49.8727C33.2463 49.8727 33.6179 50.1729 33.7082 50.5818L40.885 83.3973C41.2763 85.1815 42.2835 86.7809 43.7385 87.9283C45.1935 89.0757 47.0081 89.7016 48.8794 89.7016H53.1526L64.3691 41.6067H61.3699C58.0787 41.6067 55.2175 43.8324 54.4903 46.9638L47.8018 75.6644L41.9308 48.8738C41.6618 47.6617 41.1419 46.5159 40.4029 45.5066C39.6639 44.4973 38.7213 43.6458 37.6329 43.0042C36.5445 42.3626 35.3332 41.9445 34.0733 41.7754C32.8133 41.6063 31.5312 41.6898 30.3055 42.0208C26.9135 42.9318 24.3973 45.7268 23.6648 49.086L17.8575 75.623L11.169 46.9638C10.8142 45.4431 9.94032 44.0848 8.69047 43.1116C7.44062 42.1383 5.88888 41.6078 4.28937 41.6067H1.30078ZM75.575 41.6067C74.237 41.6067 72.9538 42.1246 72.0072 43.0466C71.0607 43.9686 70.5282 45.2193 70.5268 46.5239V89.7016H73.8975C75.2351 89.7002 76.5175 89.1819 77.4638 88.2602C78.41 87.3385 78.943 86.0886 78.9458 84.7844V41.6016L75.575 41.6067ZM85.0132 41.6067L101.777 65.7266L85.1087 89.7016H92.1423C94.0958 89.7016 95.9218 88.7647 97.0153 87.1861L106.337 73.7804C106.395 73.6982 106.474 73.631 106.565 73.5846C106.656 73.5382 106.757 73.514 106.86 73.514C106.962 73.514 107.064 73.5382 107.155 73.5846C107.246 73.631 107.324 73.6982 107.383 73.7804L116.693 87.1861C117.787 88.7647 119.613 89.7016 121.566 89.7016H128.605L111.937 65.7266L128.701 41.6067H121.662C119.708 41.6067 117.882 42.5436 116.789 44.1222L107.383 57.6677C107.324 57.7499 107.246 57.817 107.155 57.8634C107.064 57.9098 106.962 57.934 106.86 57.934C106.757 57.934 106.656 57.9098 106.565 57.8634C106.474 57.817 106.395 57.7499 106.337 57.6677L96.9251 44.1222C96.3855 43.3466 95.6591 42.7117 94.8096 42.2732C93.9601 41.8347 93.0133 41.6058 92.0521 41.6067H85.0132Z" fill="white"/>
</svg>
